<svg width="300" height="300" viewBox="0 0 300 300" fill="none" xmlns="http://www.w3.org/2000/svg">
<path d="M140.135 113.973C149.649 113.026 155.24 116.131 161.404 118.626C159.774 111.806 145.014 107.231 140.135 113.973ZM200.067 116.636C187.861 128.582 172.766 153.772 176.226 177.796C178.413 192.957 195.869 195.834 207.801 189.756C219.127 183.983 234.187 160.933 232.941 144.557C232.486 138.73 228.884 135.611 229.07 131.915C229.291 127.448 232.565 124.007 234.877 121.949C237.775 119.368 242.721 118.539 243.246 114.637C244.484 105.459 231.456 104.303 225.839 104.658C214.12 105.432 206.974 109.866 200.067 116.636ZM75.7004 106.001C56.119 112.916 37.1877 142.463 35.747 167.817C34.585 188.381 46.5301 197.846 64.7499 191.085C78.838 185.859 93.7212 161.27 92.453 144.557C91.9141 137.433 88.432 137 89.2271 130.599C89.7441 126.529 92.2055 124.462 95.0292 121.949C97.2038 120.028 102.277 118.12 102.763 114.637C104.088 105.323 91.4767 104.362 86.0191 104.658C82.7534 104.854 78.418 105.041 75.7004 106.001ZM124.032 110.654C133.595 106.63 156.185 105.264 163.985 113.973C177.49 94.788 205.41 71.5969 238.734 75.4169C255.16 77.288 266.88 88.2776 264.515 111.314C274.909 113.358 285.515 104.007 294.15 108.66C300.266 111.933 298.198 126.042 294.15 130.599C288.895 136.508 280.155 135.279 272.244 136.572C258.099 174.578 233.065 222.926 181.379 222.999C139.68 223.035 134.969 172.406 150.45 137.902C144.691 136.189 137.824 136.754 131.761 137.902C122.467 160.469 115.017 178.447 99.5458 194.413C86.2089 208.153 67.9049 223.14 40.9087 222.999C13.1964 222.835 -0.00315308 202.125 2.24594 169.811C4.3011 140.164 19.7013 113.69 40.2682 95.3573C52.27 84.6447 70.8526 75.6124 89.2271 75.4169C110.262 75.1801 128.23 84.7086 124.032 110.654Z" fill="#0000E6"/>
</svg>
