<svg width="300" height="300" viewBox="0 0 300 300" fill="none" xmlns="http://www.w3.org/2000/svg">
<path fill-rule="evenodd" clip-rule="evenodd" d="M193.315 106.89V32H239V262.41H198.095V237.428C193.881 244.007 187.928 249.661 180.142 254.393C172.35 259.128 164.354 262.542 156.125 264.731C147.908 266.926 140.776 268 134.669 268C118.784 268 103.633 263.927 89.173 255.789C74.6924 247.651 63.0598 236.474 54.2392 222.432C45.4124 208.344 41 193.13 41 176.838C41 158.157 45.5707 141.905 54.6594 128.061C63.7396 114.181 75.6403 103.465 90.1548 95.8922C104.648 88.3619 119.777 84.2733 135.469 83.6596C144.695 83.6596 152.753 84.6773 159.583 86.7362C166.426 88.7251 172.252 91.3725 177.091 94.5209C181.943 97.7024 187.354 101.799 193.315 106.89ZM86.3356 174.286C86.4559 184.652 89.0632 193.754 94.0963 201.668C99.2012 209.612 105.697 215.785 113.61 220.159C121.54 224.565 130.022 226.906 139.096 227.241C148.238 227.241 157.014 225.209 165.446 221.134C173.867 217.117 180.921 211.073 186.505 202.972C192.15 194.894 195.293 185.353 195.935 174.286C195.935 165.12 193.335 156.778 188.11 149.251C182.87 141.686 175.913 135.785 167.183 131.376C158.49 126.971 149.6 124.772 140.565 124.772C131.874 124.872 123.279 127.102 114.915 131.469C106.451 135.788 99.6022 141.756 94.2589 149.395C88.9725 157.019 86.3356 165.339 86.3356 174.286Z" fill="#2E79B2"/>
</svg>
