<svg width="300" height="300" viewBox="0 0 300 300" fill="none" xmlns="http://www.w3.org/2000/svg">
<path d="M134.001 196C136.073 114.961 183.696 133.662 156.779 36C150.616 60.7396 154.707 77.5584 136.435 108.727C118.163 139.896 119.698 180.342 134.001 196Z" fill="#F75233"/>
<path fill-rule="evenodd" clip-rule="evenodd" d="M158.1 29L159.783 35.1577C166.486 59.699 168.585 77.0554 167.866 90.5649C167.144 104.121 163.588 113.709 159.154 122.689C157.707 125.619 156.189 128.446 154.654 131.307C151.45 137.276 148.168 143.392 145.281 150.894C141.053 161.886 137.747 175.737 137.238 195.842L137.133 200L134.352 196.928C126.85 188.643 122.889 174.1 123.002 157.921C123.116 141.674 127.332 123.454 136.56 107.573C145.517 92.1567 148.974 80.3342 150.959 69.298C151.717 65.0866 152.259 61.0022 152.811 56.8373C152.988 55.5058 153.166 54.1662 153.352 52.8115C154.117 47.241 155.02 41.4759 156.57 35.1978L158.1 29ZM158.331 42.7072C157.639 46.329 157.116 49.8196 156.642 53.2713C156.46 54.5912 156.285 55.9088 156.111 57.2273C155.556 61.4099 155 65.6005 154.227 69.8958C152.181 81.2737 148.601 93.4745 139.426 109.266C130.521 124.591 126.433 142.224 126.324 157.945C126.229 171.46 129.071 183.329 134.089 191.104C134.966 173.1 138.149 160.174 142.185 149.683C145.146 141.987 148.601 135.545 151.854 129.48C153.363 126.667 154.828 123.934 156.181 121.196C160.479 112.492 163.858 103.356 164.549 90.3852C165.177 78.5896 163.585 63.5462 158.331 42.7072Z" fill="#F75233"/>
<path d="M254.032 168.881C164.248 362.562 122.488 131.395 16 168.882C101.608 183.46 97.432 258.433 174.688 266.466C251.944 274.5 241.504 189.707 277 154.303C218.536 145.973 218.536 216.781 180.952 195.955C143.368 175.129 216.448 118.899 174.688 71C178.61 157.519 114.136 179.294 168.424 216.781C220.624 239.689 218.042 183.46 254.032 168.881Z" fill="#FFFFFF"/>
<path fill-rule="evenodd" clip-rule="evenodd" d="M172.323 65L175.471 68.624C197.032 93.4488 188.807 120.475 180.474 143.157C179.896 144.729 179.319 146.277 178.752 147.801C175.167 157.423 171.943 166.078 171.179 173.592C170.742 177.889 171.132 181.667 172.646 184.944C174.151 188.202 176.838 191.125 181.28 193.595C185.801 196.11 189.643 197.178 193.014 197.245C196.369 197.311 199.381 196.388 202.259 194.72C207.661 191.588 212.428 185.964 217.891 179.518C218.376 178.946 218.866 178.368 219.363 177.784C225.362 170.734 232.172 163.09 241.244 157.775C250.376 152.425 261.711 149.481 276.685 151.623L280 152.097L277.63 154.47C269.01 163.1 263.113 174.812 257.915 187.609C255.978 192.378 254.127 197.33 252.266 202.311C249.186 210.551 246.077 218.873 242.494 226.583C236.706 239.037 229.511 250.33 218.731 257.972C207.905 265.646 193.657 269.504 174.037 267.456C135.13 263.395 116.478 242.482 97.3757 221.065L96.8065 220.427C77.544 198.833 57.5291 176.768 15.3545 169.559L9 168.473L15.0798 166.324C42.3483 156.689 65.4617 164.377 85.9976 177.962C96.2459 184.742 105.891 193.012 115.122 201.36C117.843 203.82 120.523 206.283 123.173 208.717C129.548 214.574 135.745 220.267 141.891 225.365C159.363 239.854 175.65 248.84 192.91 242.988C201.602 240.04 210.764 233.266 220.582 221.086C229.821 209.624 239.575 193.457 250.015 171.404C243.414 174.988 238.217 180.133 233.594 185.867C230.82 189.308 228.274 192.935 225.749 196.553L225.395 197.061C223.001 200.494 220.614 203.916 218.106 207.073C212.845 213.697 206.887 219.371 198.743 221.801C190.578 224.238 180.534 223.326 167.278 217.486L167.132 217.422L167 217.331C153.278 207.819 146.72 199.074 144.951 189.758C143.198 180.523 146.249 171.133 150.666 160.63C151.809 157.912 153.053 155.1 154.347 152.173C163.113 132.35 174.23 107.21 172.54 69.8013L172.323 65ZM176.034 74.6791C176.595 110.177 165.782 134.61 157.39 153.57C156.102 156.48 154.871 159.261 153.747 161.933C149.329 172.439 146.689 180.983 148.236 189.131C149.762 197.17 155.461 205.229 168.769 214.48C181.519 220.071 190.67 220.712 197.789 218.587C204.956 216.448 210.382 211.416 215.491 204.984C217.932 201.911 220.264 198.567 222.676 195.109L223.009 194.631C225.529 191.02 228.137 187.302 230.994 183.759C236.713 176.663 243.51 170.157 252.869 166.351L256.795 164.755L255.015 168.61C243.769 192.961 233.236 210.721 223.182 223.194C213.129 235.666 203.48 242.943 193.981 246.164C174.857 252.65 157.238 242.444 139.761 227.949C133.545 222.795 127.249 217.01 120.845 211.127C118.21 208.706 115.557 206.268 112.883 203.851C103.679 195.528 94.1865 187.397 84.1565 180.762C65.7922 168.613 45.7564 161.554 22.5491 167.543C61.4508 176.057 80.9737 197.648 99.2985 218.19L99.7386 218.684C118.869 240.132 136.764 260.194 174.383 264.12C193.364 266.102 206.762 262.35 216.801 255.233C226.886 248.085 233.775 237.407 239.463 225.166C243.007 217.541 246.018 209.476 249.052 201.35C250.922 196.342 252.801 191.311 254.818 186.344C259.596 174.582 265.095 163.362 272.95 154.554C260.341 153.356 250.742 156.094 242.93 160.671C234.397 165.671 227.906 172.91 221.907 179.961C221.387 180.572 220.87 181.183 220.354 181.792C215.016 188.099 209.866 194.184 203.932 197.623C200.615 199.546 197.009 200.678 192.948 200.598C188.901 200.518 184.527 199.236 179.659 196.528C174.712 193.776 171.466 190.367 169.612 186.354C167.768 182.361 167.376 177.931 167.852 173.251C168.664 165.269 172.069 156.141 175.637 146.577C176.202 145.06 176.772 143.533 177.336 141.997C185.235 120.497 192.298 96.8146 176.034 74.6791Z" fill="#FFFFFF"/>
</svg>
