<svg width="1920" height="1264" viewBox="0 0 1920 1264" fill="none" xmlns="http://www.w3.org/2000/svg">
<g clip-path="url(#clip0_1768_7480)">
<path d="M-502 896C-266.333 856.167 213.2 710.3 246 445.5C278.8 180.7 173 -73.5 116 -167.5" stroke="#181823"/>
<path d="M-504 938C-324.5 929 169.1 820.5 707.5 458.5C1245.9 96.5 1356.5 -323.333 1344.5 -488" stroke="#181823"/>
<path d="M148.5 1255.5C200 1103.67 409.4 747.2 835 536C1260.6 324.8 1949.67 152.667 2241 93" stroke="#181823"/>
<path d="M1759.5 1301.5C1681.33 1088.67 1590.9 612.7 1854.5 411.5C2118.1 210.3 2386 134.667 2487 122" stroke="#181823"/>
</g>
<defs>
<clipPath id="clip0_1768_7480">
<rect width="1920" height="1264" fill="white"/>
</clipPath>
</defs>
</svg>
