<svg width="2000" height="1000" viewBox="0 0 2000 1000" fill="none" xmlns="http://www.w3.org/2000/svg">
<g clip-path="url(#clip0_2202_15825)">
<mask id="mask0_2202_15825" style="mask-type:luminance" maskUnits="userSpaceOnUse" x="0" y="0" width="2000" height="1000">
<path d="M0 0H2000V1000H0V0Z" fill="url(#paint0_radial_2202_15825)"/>
</mask>
<g mask="url(#mask0_2202_15825)">
<path d="M0 0H100V100H0V0Z" stroke="#171622" stroke-width="2"/>
<path d="M100 0H200V100H100V0Z" fill="#171622" fill-opacity="0.380392" stroke="#171622" stroke-width="2"/>
<path d="M300 0H200V100H300M300 0V100M300 0H400V100H300" stroke="#171622" stroke-width="2"/>
<path d="M400 0H500V100H400V0Z" fill="#171622" fill-opacity="0.827451" stroke="#171622" stroke-width="2"/>
<path d="M500 0H600V100H500V0Z" fill="#171622" fill-opacity="0.768627" stroke="#171622" stroke-width="2"/>
<path d="M600 0H700V100H600V0Z" fill="#171622" fill-opacity="0.12549" stroke="#171622" stroke-width="2"/>
<path d="M700 0H800V100H700V0Z" fill="#171622" fill-opacity="0.937255" stroke="#171622" stroke-width="2"/>
<path d="M800 0H900V100H800V0Z" fill="#171622" fill-opacity="0.843137" stroke="#171622" stroke-width="2"/>
<path d="M900 0H1000V100H900V0Z" stroke="#171622" stroke-width="2"/>
<path d="M1000 0H1100V100H1000V0Z" fill="#171622" fill-opacity="0.054902" stroke="#171622" stroke-width="2"/>
<path d="M1100 0H1200V100H1100V0Z" stroke="#171622" stroke-width="2"/>
<path d="M1200 0H1300V100H1200V0Z" fill="#171622" fill-opacity="0.443137" stroke="#171622" stroke-width="2"/>
<path d="M1300 0H1400V100H1300V0Z" fill="#171622" fill-opacity="0.0509804" stroke="#171622" stroke-width="2"/>
<path d="M1400 0H1500V100H1400V0Z" fill="#171622" fill-opacity="0.01" stroke="#171622" stroke-width="2"/>
<path d="M1600 0H1500V100H1600M1600 0V100M1600 0H1700M1600 100H1700M1700 0V100M1700 0H1800M1700 100H1800M1800 0V100M1800 0H1900M1800 100H1900M1900 0V100M1900 0H2000V100H1900M100 100H0V200H100M100 100V200M100 100H200M100 200H200M200 100V200M200 100H300V200H200" stroke="#171622" stroke-width="2"/>
<path d="M300 100H400V200H300V100Z" fill="#171622" fill-opacity="0.647059" stroke="#171622" stroke-width="2"/>
<path d="M500 100H400V200H500M500 100V200M500 100H600M500 200H600M600 100V200M600 100H700M600 200H700M700 100V200M700 100H800M700 200H800M800 100V200M800 100H900M800 200H900M900 100V200M900 100H1000M900 200H1000M1000 100V200M1000 100H1100V200H1000" stroke="#171622" stroke-width="2"/>
<path d="M1100 100H1200V200H1100V100Z" fill="#171622" fill-opacity="0.921569" stroke="#171622" stroke-width="2"/>
<path d="M1300 100H1200V200H1300M1300 100V200M1300 100H1400V200H1300" stroke="#171622" stroke-width="2"/>
<path d="M1400 100H1500V200H1400V100Z" fill="#171622" fill-opacity="0.270588" stroke="#171622" stroke-width="2"/>
<path d="M1500 100H1600V200H1500V100Z" fill="#171622" fill-opacity="0.427451" stroke="#171622" stroke-width="2"/>
<path d="M1700 100H1600V200H1700M1700 100V200M1700 100H1800M1700 200H1800M1800 100V200M1800 100H1900M1800 200H1900M1900 100V200M1900 100H2000V200H1900M0 200H100V300H0V200Z" stroke="#171622" stroke-width="2"/>
<path d="M100 200H200V300H100V200Z" fill="#171622" fill-opacity="0.439216" stroke="#171622" stroke-width="2"/>
<path d="M200 200H300V300H200V200Z" stroke="#171622" stroke-width="2"/>
<path d="M300 200H400V300H300V200Z" fill="#171622" fill-opacity="0.823529" stroke="#171622" stroke-width="2"/>
<path d="M500 200H400V300H500M500 200V300M500 200H600M500 300H600M600 200V300M600 200H700V300H600" stroke="#171622" stroke-width="2"/>
<path d="M700 200H800V300H700V200Z" fill="#171622" fill-opacity="0.313726" stroke="#171622" stroke-width="2"/>
<path d="M800 200H900V300H800V200Z" fill="#171622" fill-opacity="0.117647" stroke="#171622" stroke-width="2"/>
<path d="M1000 200H900V300H1000M1000 200V300M1000 200H1100M1000 300H1100M1100 200V300M1100 200H1200M1100 300H1200M1200 200V300M1200 200H1300M1200 300H1300M1300 200V300M1300 200H1400V300H1300" stroke="#171622" stroke-width="2"/>
<path d="M1400 200H1500V300H1400V200Z" fill="#171622" fill-opacity="0.968627" stroke="#171622" stroke-width="2"/>
<path d="M1600 200H1500V300H1600M1600 200V300M1600 200H1700M1600 300H1700M1700 200V300M1700 200H1800M1700 300H1800M1800 200V300M1800 200H1900V300H1800" stroke="#171622" stroke-width="2"/>
<path d="M1900 200H2000V300H1900V200Z" fill="#171622" fill-opacity="0.713726" stroke="#171622" stroke-width="2"/>
<path d="M0 300H100V400H0V300Z" fill="#171622" fill-opacity="0.364706" stroke="#171622" stroke-width="2"/>
<path d="M200 300H100V400H200M200 300V400M200 300H300V400H200" stroke="#171622" stroke-width="2"/>
<path d="M300 300H400V400H300V300Z" fill="#171622" fill-opacity="0.188235" stroke="#171622" stroke-width="2"/>
<path d="M500 300H400V400H500M500 300V400M500 300H600M500 400H600M600 300V400M600 300H700M600 400H700M700 300V400M700 300H800M700 400H800M800 300V400M800 300H900M800 400H900M900 300V400M900 300H1000M900 400H1000M1000 300V400M1000 300H1100M1000 400H1100M1100 300V400M1100 300H1200V400H1100" stroke="#171622" stroke-width="2"/>
<path d="M1200 300H1300V400H1200V300Z" fill="#171622" fill-opacity="0.780392" stroke="#171622" stroke-width="2"/>
<path d="M1300 300H1400V400H1300V300Z" stroke="#171622" stroke-width="2"/>
<path d="M1400 300H1500V400H1400V300Z" fill="#171622" fill-opacity="0.541176" stroke="#171622" stroke-width="2"/>
<path d="M1500 300H1600V400H1500V300Z" stroke="#171622" stroke-width="2"/>
<path d="M1600 300H1700V400H1600V300Z" fill="#171622" fill-opacity="0.0745098" stroke="#171622" stroke-width="2"/>
<path d="M1800 300H1700V400H1800M1800 300V400M1800 300H1900M1800 400H1900M1900 300V400M1900 300H2000V400H1900M0 400H100V500H0V400Z" stroke="#171622" stroke-width="2"/>
<path d="M100 400H200V500H100V400Z" fill="#171622" fill-opacity="0.733333" stroke="#171622" stroke-width="2"/>
<path d="M200 400H300V500H200V400Z" stroke="#171622" stroke-width="2"/>
<path d="M300 400H400V500H300V400Z" fill="#171622" fill-opacity="0.14902" stroke="#171622" stroke-width="2"/>
<path d="M500 400H400V500H500M500 400V500M500 400H600M500 500H600M600 400V500M600 400H700M600 500H700M700 400V500M700 400H800M700 500H800M800 400V500M800 400H900M800 500H900M900 400V500M900 400H1000V500H900" stroke="#171622" stroke-width="2"/>
<path d="M1000 400H1100V500H1000V400Z" fill="#171622" fill-opacity="0.27451" stroke="#171622" stroke-width="2"/>
<path d="M1100 400H1200V500H1100V400Z" fill="#171622" fill-opacity="0.0117647" stroke="#171622" stroke-width="2"/>
<path d="M1200 400H1300V500H1200V400Z" fill="#171622" fill-opacity="0.180392" stroke="#171622" stroke-width="2"/>
<path d="M1300 400H1400V500H1300V400Z" stroke="#171622" stroke-width="2"/>
<path d="M1400 400H1500V500H1400V400Z" fill="#171622" fill-opacity="0.290196" stroke="#171622" stroke-width="2"/>
<path d="M1600 400H1500V500H1600M1600 400V500M1600 400H1700M1600 500H1700M1700 400V500M1700 400H1800V500H1700" stroke="#171622" stroke-width="2"/>
<path d="M1800 400H1900V500H1800V400Z" fill="#171622" fill-opacity="0.580392" stroke="#171622" stroke-width="2"/>
<path d="M1900 400H2000V500H1900V400Z" fill="#171622" fill-opacity="0.427451" stroke="#171622" stroke-width="2"/>
<path d="M100 500H0V600H100M100 500V600M100 500H200M100 600H200M200 500V600M200 500H300M200 600H300M300 500V600M300 500H400M300 600H400M400 500V600M400 500H500M400 600H500M500 500V600M500 500H600M500 600H600M600 500V600M600 500H700M600 600H700M700 500V600M700 500H800V600H700" stroke="#171622" stroke-width="2"/>
<path d="M800 500H900V600H800V500Z" fill="#171622" fill-opacity="0.894118" stroke="#171622" stroke-width="2"/>
<path d="M900 500H1000V600H900V500Z" stroke="#171622" stroke-width="2"/>
<path d="M1000 500H1100V600H1000V500Z" fill="#171622" fill-opacity="0.917647" stroke="#171622" stroke-width="2"/>
<path d="M1200 500H1100V600H1200M1200 500V600M1200 500H1300V600H1200" stroke="#171622" stroke-width="2"/>
<path d="M1300 500H1400V600H1300V500Z" fill="#171622" fill-opacity="0.345098" stroke="#171622" stroke-width="2"/>
<path d="M1500 500H1400V600H1500M1500 500V600M1500 500H1600V600H1500" stroke="#171622" stroke-width="2"/>
<path d="M1600 500H1700V600H1600V500Z" fill="#171622" fill-opacity="0.0509804" stroke="#171622" stroke-width="2"/>
<path d="M1800 500H1700V600H1800M1800 500V600M1800 500H1900M1800 600H1900M1900 500V600M1900 500H2000V600H1900M100 600H0V700H100M100 600V700M100 600H200M100 700H200M200 600V700M200 600H300M200 700H300M300 600V700M300 600H400V700H300" stroke="#171622" stroke-width="2"/>
<path d="M400 600H500V700H400V600Z" fill="#171622" fill-opacity="0.819608" stroke="#171622" stroke-width="2"/>
<path d="M500 600H600V700H500V600Z" stroke="#171622" stroke-width="2"/>
<path d="M600 600H700V700H600V600Z" fill="#171622" fill-opacity="0.384314" stroke="#171622" stroke-width="2"/>
<path d="M800 600H700V700H800M800 600V700M800 600H900M800 700H900M900 600V700M900 600H1000M900 700H1000M1000 600V700M1000 600H1100M1000 700H1100M1100 600V700M1100 600H1200M1100 700H1200M1200 600V700M1200 600H1300M1200 700H1300M1300 600V700M1300 600H1400M1300 700H1400M1400 600V700M1400 600H1500M1400 700H1500M1500 600V700M1500 600H1600M1500 700H1600M1600 600V700M1600 600H1700M1600 700H1700M1700 600V700M1700 600H1800M1700 700H1800M1800 600V700M1800 600H1900V700H1800" stroke="#171622" stroke-width="2"/>
<path d="M1900 600H2000V700H1900V600Z" fill="#171622" fill-opacity="0.611765" stroke="#171622" stroke-width="2"/>
<path d="M100 700H0V800H100M100 700V800M100 700H200M100 800H200M200 700V800M200 700H300M200 800H300M300 700V800M300 700H400M300 800H400M400 700V800M400 700H500M400 800H500M500 700V800M500 700H600V800H500" stroke="#171622" stroke-width="2"/>
<path d="M600 700H700V800H600V700Z" fill="#171622" fill-opacity="0.839216" stroke="#171622" stroke-width="2"/>
<path d="M700 700H800V800H700V700Z" fill="#171622" fill-opacity="0.368627" stroke="#171622" stroke-width="2"/>
<path d="M900 700H800V800H900M900 700V800M900 700H1000M900 800H1000M1000 700V800M1000 700H1100M1000 800H1100M1100 700V800M1100 700H1200V800H1100" stroke="#171622" stroke-width="2"/>
<path d="M1200 700H1300V800H1200V700Z" fill="#171622" fill-opacity="0.760784" stroke="#171622" stroke-width="2"/>
<path d="M1300 700H1400V800H1300V700Z" stroke="#171622" stroke-width="2"/>
<path d="M1400 700H1500V800H1400V700Z" fill="#171622" fill-opacity="0.847059" stroke="#171622" stroke-width="2"/>
<path d="M1600 700H1500V800H1600M1600 700V800M1600 700H1700M1600 800H1700M1700 700V800M1700 700H1800V800H1700" stroke="#171622" stroke-width="2"/>
<path d="M1800 700H1900V800H1800V700Z" fill="#171622" fill-opacity="0.211765" stroke="#171622" stroke-width="2"/>
<path d="M1900 700H2000V800H1900V700Z" stroke="#171622" stroke-width="2"/>
<path d="M0 800H100V900H0V800Z" fill="#171622" fill-opacity="0.352941" stroke="#171622" stroke-width="2"/>
<path d="M100 800H200V900H100V800Z" stroke="#171622" stroke-width="2"/>
<path d="M200 800H300V900H200V800Z" fill="#171622" fill-opacity="0.164706" stroke="#171622" stroke-width="2"/>
<path d="M300 800H400V900H300V800Z" fill="#171622" fill-opacity="0.882353" stroke="#171622" stroke-width="2"/>
<path d="M500 800H400V900H500M500 800V900M500 800H600V900H500" stroke="#171622" stroke-width="2"/>
<path d="M600 800H700V900H600V800Z" fill="#171622" fill-opacity="0.466667" stroke="#171622" stroke-width="2"/>
<path d="M800 800H700V900H800M800 800V900M800 800H900V900H800" stroke="#171622" stroke-width="2"/>
<path d="M900 800H1000V900H900V800Z" fill="#171622" fill-opacity="0.0980392" stroke="#171622" stroke-width="2"/>
<path d="M1100 800H1000V900H1100M1100 800V900M1100 800H1200M1100 900H1200M1200 800V900M1200 800H1300M1200 900H1300M1300 800V900M1300 800H1400V900H1300" stroke="#171622" stroke-width="2"/>
<path d="M1400 800H1500V900H1400V800Z" fill="#171622" fill-opacity="0.819608" stroke="#171622" stroke-width="2"/>
<path d="M1600 800H1500V900H1600M1600 800V900M1600 800H1700M1600 900H1700M1700 800V900M1700 800H1800M1700 900H1800M1800 800V900M1800 800H1900V900H1800" stroke="#171622" stroke-width="2"/>
<path d="M1900 800H2000V900H1900V800Z" fill="#171622" fill-opacity="0.501961" stroke="#171622" stroke-width="2"/>
<path d="M0 900H100V1000H0V900Z" fill="#171622" fill-opacity="0.290196" stroke="#171622" stroke-width="2"/>
<path d="M200 900H100V1000H200M200 900V1000M200 900H300M200 1000H300M300 900V1000M300 900H400V1000H300" stroke="#171622" stroke-width="2"/>
<path d="M400 900H500V1000H400V900Z" fill="#171622" fill-opacity="0.462745" stroke="#171622" stroke-width="2"/>
<path d="M600 900H500V1000H600M600 900V1000M600 900H700V1000H600" stroke="#171622" stroke-width="2"/>
<path d="M700 900H800V1000H700V900Z" fill="#171622" fill-opacity="0.807843" stroke="#171622" stroke-width="2"/>
<path d="M900 900H800V1000H900M900 900V1000M900 900H1000M900 1000H1000M1000 900V1000M1000 900H1100M1000 1000H1100M1100 900V1000M1100 900H1200V1000H1100" stroke="#171622" stroke-width="2"/>
<path d="M1200 900H1300V1000H1200V900Z" fill="#171622" fill-opacity="0.666667" stroke="#171622" stroke-width="2"/>
<path d="M1400 900H1300V1000H1400M1400 900V1000M1400 900H1500V1000H1400" stroke="#171622" stroke-width="2"/>
<path d="M1500 900H1600V1000H1500V900Z" fill="#171622" fill-opacity="0.929412" stroke="#171622" stroke-width="2"/>
<path d="M1600 900H1700V1000H1600V900Z" stroke="#171622" stroke-width="2"/>
<path d="M1700 900H1800V1000H1700V900Z" fill="#171622" fill-opacity="0.184314" stroke="#171622" stroke-width="2"/>
<path d="M1900 900H1800V1000H1900M1900 900V1000M1900 900H2000V1000H1900" stroke="#171622" stroke-width="2"/>
</g>
</g>
<defs>
<radialGradient id="paint0_radial_2202_15825" cx="0" cy="0" r="1" gradientUnits="userSpaceOnUse" gradientTransform="translate(1000 500) scale(1000 500)">
<stop stop-color="white"/>
<stop offset="1" stop-color="white" stop-opacity="0"/>
</radialGradient>
<clipPath id="clip0_2202_15825">
<rect width="2000" height="1000" fill="white"/>
</clipPath>
</defs>
</svg>
