<svg width="1920" height="1080" viewBox="0 0 1920 1080" fill="none" xmlns="http://www.w3.org/2000/svg">
<g clip-path="url(#clip0_1924_10776)">
<path d="M0.666196 462.288C0.759258 487.854 0.850903 511.633 0.943795 535.411C38.7734 519.514 77.9359 500.827 120.227 489.588C118.058 477.265 115.889 464.942 114.247 447.961C75.6119 451.482 37.9381 457.305 0.666196 462.288Z" fill="#F5F5FF"/>
<path d="M112.295 418.389C187.18 416.466 263.18 417.088 341.442 427.352C346.492 444.468 353.71 462.29 362.354 480.57C272.753 443.251 191.548 440.921 114.247 447.962C113.441 439.458 112.76 429.79 112.295 418.389Z" fill="#FAFAFF"/>
<path d="M114.247 447.962C115.889 464.942 118.058 477.265 120.227 489.588C162.518 478.349 207.908 474.557 258.224 488.531C249.301 476.48 240.377 464.428 233.684 447.637C192.54 443.276 152.913 444.441 114.247 447.962Z" fill="#EEEEFF"/>
<path d="M233.684 447.637C240.376 464.428 249.301 476.48 258.223 488.531C308.57 502.479 363.811 534.165 425.776 593.882C402.694 555.506 379.643 517.104 362.354 480.57C317.554 461.91 274.86 451.997 233.684 447.637Z" fill="#EAEAFF"/>
<path d="M0.943969 535.412C1.03703 559.191 1.1299 582.968 1.19183 608.534C39.6101 581.723 80.2596 550.172 126.176 531.187C124.565 514.206 122.396 501.884 120.227 489.588C77.9361 500.828 38.7736 519.515 0.943969 535.412Z" fill="#E0E0FF"/>
<path d="M1.19141 608.533C39.6097 581.721 80.2592 550.171 126.175 531.186C127.012 539.69 127.662 549.358 128.158 560.76C81.0338 582.29 39.8881 618.066 1.28394 648.507C1.25348 634.586 1.22186 621.343 1.19141 608.533Z" fill="#CBCBFF"/>
<path d="M1.28452 648.509C39.8887 618.068 81.0344 582.292 128.159 560.762C128.623 572.19 128.902 585.353 128.902 600.871C81.3133 623.35 39.982 660.75 1.31592 692.545C1.31592 677.027 1.28452 662.429 1.28452 648.509Z" fill="#C4C4FF"/>
<path d="M120.226 489.589C122.395 501.884 124.564 514.207 126.175 531.188C172.091 512.23 223.306 505.865 282.792 529.4C276.1 512.609 267.177 500.557 258.223 488.532C207.907 474.558 162.518 478.35 120.226 489.589Z" fill="#CACAFF"/>
<path d="M258.223 488.531C267.177 500.556 276.1 512.608 282.793 529.399C342.279 552.961 410.068 606.448 489.197 707.222C471.909 670.66 448.827 632.285 425.776 593.882C363.811 534.165 308.57 502.479 258.223 488.531Z" fill="#BDBDFF"/>
<path d="M126.175 531.188C172.091 512.23 223.305 505.866 282.792 529.401C286.138 537.796 288.925 547.383 290.877 558.758C228.354 532.027 175.282 539.258 128.158 560.762C127.662 549.36 127.011 539.692 126.175 531.188Z" fill="#A6A6FF"/>
<path d="M128.159 560.76C175.283 539.256 228.355 532.025 290.878 558.756C292.83 570.103 293.946 583.239 293.946 598.757C230.277 570.835 176.46 578.391 128.902 600.869C128.902 585.351 128.623 572.188 128.159 560.76Z" fill="#9A9AFF"/>
<path d="M282.793 529.399C342.279 552.961 410.068 606.448 489.197 707.222C497.842 725.475 505.06 743.296 510.11 760.412C425.311 646.124 353.401 585.459 290.878 558.756C288.926 547.381 286.139 537.794 282.793 529.399Z" fill="#9090FF"/>
<path d="M290.877 558.756C353.4 585.459 425.31 646.124 510.109 760.412C515.16 777.555 518.042 793.967 518.042 809.485C431.106 690.079 357.615 626.679 293.946 598.757C293.946 583.239 292.829 570.103 290.877 558.756Z" fill="#8181FF"/>
<path d="M1.31592 692.544C39.982 660.749 81.3133 623.349 128.902 600.87C128.902 614.601 128.623 630.661 128.159 648.481C81.0344 669.985 39.8887 705.787 1.28452 736.228C1.28452 720.899 1.31592 706.275 1.31592 692.544Z" fill="#C1C1FF"/>
<path d="M1.28394 736.227C39.8881 705.786 81.0338 669.984 128.158 648.48C127.662 666.301 127.012 685.881 126.175 706.626C80.2592 725.584 39.6097 757.162 1.19141 783.974C1.22186 767.535 1.25348 751.528 1.28394 736.227Z" fill="#C3C3FF"/>
<path d="M1.19183 783.976C1.12922 816.881 1.03618 851.574 0.943969 886.267C38.7736 870.396 77.9361 851.682 120.227 840.443C122.396 794.267 124.565 748.119 126.176 706.628C80.2596 725.586 39.6101 757.164 1.19183 783.976Z" fill="#C9C9FF"/>
<path d="M128.902 600.871C176.46 578.393 230.277 570.837 293.946 598.759C293.946 612.49 292.83 628.577 290.878 646.451C228.355 619.748 175.283 626.979 128.159 648.482C128.623 630.662 128.902 614.602 128.902 600.871Z" fill="#9696FF"/>
<path d="M128.158 648.481C175.282 626.977 228.354 619.746 290.877 646.449C288.925 664.351 286.138 683.985 282.792 704.839C223.305 681.277 172.091 687.668 126.175 706.626C127.011 685.881 127.662 666.301 128.158 648.481Z" fill="#9898FF"/>
<path d="M293.946 598.757C357.615 626.679 431.106 690.079 518.042 809.485C518.042 823.216 515.16 836.026 510.109 848.132C425.31 733.844 353.4 673.179 290.877 646.449C292.829 628.574 293.946 612.488 293.946 598.757Z" fill="#7B7BFF"/>
<path d="M290.878 646.45C288.926 664.351 286.139 683.986 282.793 704.839C312.536 716.62 344.354 735.876 378.621 764.8C384.229 747.277 388.876 730.406 392.129 714.454C355.755 681.684 322.139 659.829 290.878 646.45Z" fill="#7E7EFF"/>
<path d="M392.129 714.453C388.876 730.405 384.228 747.277 378.621 764.799C412.918 793.696 449.633 832.262 489.197 882.636C497.842 871.667 505.06 860.265 510.11 848.133C467.695 790.989 428.533 747.25 392.129 714.453Z" fill="#7777FF"/>
<path d="M126.175 706.627C124.564 748.117 122.395 794.266 120.226 840.441C162.518 829.202 207.907 825.41 258.223 839.385C267.177 792.965 276.1 746.519 282.792 704.839C223.306 681.277 172.091 687.669 126.175 706.627Z" fill="#9F9FFF"/>
<path d="M282.793 704.84C276.101 746.52 267.178 792.966 258.224 839.386C283.413 846.373 309.81 857.775 337.632 874.918C352.535 837.355 367.436 799.818 378.621 764.8C344.354 735.876 312.536 716.621 282.793 704.84Z" fill="#8585FF"/>
<path d="M378.62 764.8C367.436 799.817 352.534 837.354 337.632 874.917C365.485 892.033 394.793 914.89 425.776 944.735C448.827 924.667 471.909 904.573 489.197 882.636C449.633 832.262 412.918 793.697 378.62 764.8Z" fill="#7E7EFF"/>
<path d="M0.943795 886.265C0.850734 920.984 0.759258 955.677 0.666196 988.582C37.9381 983.599 75.6119 977.776 114.247 974.255C115.889 932.765 118.058 886.59 120.227 840.441C77.9359 851.68 38.7734 870.394 0.943795 886.265Z" fill="#DADAFF"/>
<path d="M0.666159 988.582C0.603554 1021.46 0.571974 1052.55 0.571974 1080.01C37.565 1080.01 74.5588 1080.01 111.552 1080.01C111.552 1052.55 112.636 1015.75 114.247 974.256C75.6119 977.776 37.9381 983.599 0.666159 988.582Z" fill="#EFEFFF"/>
<path d="M120.227 840.441C118.058 886.589 115.889 932.765 114.247 974.255C152.913 970.734 192.54 969.57 233.684 973.93C240.377 932.25 249.301 885.803 258.224 839.384C207.908 825.41 162.518 829.202 120.227 840.441Z" fill="#B9B9FF"/>
<path d="M258.224 839.384C249.301 885.803 240.377 932.25 233.684 973.93C254.257 976.096 275.233 979.671 296.641 985.033C307.826 949.989 322.729 912.453 337.632 874.916C309.809 857.773 283.412 846.371 258.224 839.384Z" fill="#9F9FFF"/>
<path d="M337.632 874.917C322.729 912.453 307.826 949.989 296.641 985.033C318.081 990.369 339.954 997.519 362.354 1006.86C379.643 984.925 402.694 964.83 425.776 944.735C394.793 914.89 365.485 892.033 337.632 874.917Z" fill="#9898FF"/>
<path d="M114.248 974.256C112.636 1015.75 111.553 1052.55 111.553 1080.01C148.546 1080.01 185.538 1080.01 222.531 1080.01C222.531 1052.55 226.992 1015.61 233.685 973.931C192.54 969.57 152.914 970.735 114.248 974.256Z" fill="#DADAFF"/>
<path d="M233.684 973.931C226.991 1015.61 222.53 1052.55 222.53 1080.01C259.523 1080.01 296.517 1080.01 333.51 1080.01C333.51 1052.55 345.035 1028.77 362.354 1006.86C317.553 988.203 274.859 978.291 233.684 973.931Z" fill="#C9C9FF"/>
<path d="M944.238 0.370411C936.43 29.9715 925.09 55.321 910.9 78.3681C1010.73 73.0058 1117.96 77.0143 1240.9 101.172C1252.39 73.9811 1259.08 42.945 1262.86 8.68568C1152.69 0.804613 1047.32 -0.875384 944.238 0.370411Z" fill="#FCF3FF"/>
<path d="M1262.86 8.6855C1259.08 42.9448 1252.39 73.9809 1240.9 101.172C1363.83 125.329 1502.51 169.663 1665.29 244.871C1649.43 182.446 1627.84 115.498 1610.24 54.1024C1488.01 30.5949 1373.07 16.5394 1262.86 8.6855Z" fill="#FBECFF"/>
<path d="M625.179 112.006C613.561 178.06 598.348 241.27 584.065 310.168C654.302 273.038 718.281 229.815 797.008 205.413C842.707 161.54 882.519 124.517 910.899 78.3689C811.074 83.7584 718.622 98.5455 625.179 112.006Z" fill="#FDF9FF"/>
<path d="M910.9 78.3672C896.71 101.442 879.671 122.24 860.461 142.742C952.758 129.796 1057.48 132.748 1189.96 170.637C1213.04 151.733 1229.37 128.362 1240.9 101.171C1117.96 77.0134 1010.73 73.0049 910.9 78.3672Z" fill="#FBEBFF"/>
<path d="M1240.89 101.172C1229.37 128.363 1213.04 151.735 1189.96 170.638C1322.47 208.554 1482.71 281.406 1686.05 408.342C1691.29 365.145 1681.12 307.27 1665.29 244.872C1502.51 169.664 1363.83 125.33 1240.89 101.172Z" fill="#F8DEFF"/>
<path d="M860.461 142.743C841.252 163.244 819.873 183.476 797.008 205.413C875.735 180.985 969.209 175.377 1098.47 213.455C1137.01 204.03 1166.88 189.569 1189.96 170.638C1057.48 132.75 952.758 129.797 860.461 142.743Z" fill="#FAE7FF"/>
<path d="M1189.96 170.637C1166.88 189.568 1137.01 204.03 1098.47 213.454C1227.7 251.559 1392.71 333.376 1614.45 483.792C1660.18 480.055 1680.82 451.537 1686.05 408.341C1482.71 281.405 1322.47 208.553 1189.96 170.637Z" fill="#F7D6FF"/>
<path d="M341.442 427.353C443.158 430.63 512.497 400.785 572.851 363.14C572.51 384.4 575.237 408.937 580.194 435.694C523.837 469.304 458.617 492.514 362.355 480.571C353.711 462.29 346.492 444.469 341.442 427.353Z" fill="#F8F8FF"/>
<path d="M584.065 310.167C654.302 273.037 718.281 229.814 797.008 205.412C773.275 215.108 758.28 231.194 750.224 252.21C684.51 280.051 633.173 325.468 572.85 363.14C573.191 341.853 576.66 323.844 584.065 310.167Z" fill="#FDF7FF"/>
<path d="M572.85 363.14C633.173 325.468 684.51 280.051 750.224 252.21C742.138 273.199 740.992 299.118 744.958 328.394C684.077 358.049 636.55 402.057 580.193 435.693C575.236 408.936 572.509 384.399 572.85 363.14Z" fill="#F8F2FF"/>
<path d="M362.355 480.57C379.643 517.104 402.694 555.506 425.776 593.882C465.65 613.029 501.467 622.481 534.866 625C516.431 573.164 498.524 521.464 486.255 475.207C450.872 483.711 410.501 486.528 362.355 480.57Z" fill="#E9E9FF"/>
<path d="M486.255 475.208C498.524 521.465 516.431 573.166 534.866 625.002C568.265 627.493 599.247 623.051 629.517 614.331C608.883 551.526 590.108 489.183 580.194 435.695C552 452.486 521.606 466.705 486.255 475.208Z" fill="#E9E8FF"/>
<path d="M580.194 435.694C590.109 489.182 608.883 551.526 629.518 614.33C690.027 596.916 747.592 562.494 815.537 532.677C781.239 459.094 752.891 386.974 744.959 328.394C684.079 358.05 636.552 402.058 580.194 435.694Z" fill="#EBE5FF"/>
<path d="M797.008 205.413C875.735 180.985 969.209 175.378 1098.47 213.455C1058.41 219.17 1031.05 230.707 1013.82 246.795C895.997 214.106 815.939 224.37 750.225 252.211C758.28 231.195 773.276 215.109 797.008 205.413Z" fill="#FAE5FF"/>
<path d="M750.224 252.21C815.938 224.369 895.997 214.105 1013.82 246.794C996.597 262.881 989.533 283.491 990.029 307.35C880.134 283.464 805.87 298.738 744.958 328.394C740.992 299.117 742.138 273.199 750.224 252.21Z" fill="#F7E3FF"/>
<path d="M1098.47 213.455C1018.38 224.857 989.008 259.659 990.03 307.351C1099.93 331.211 1245.42 394.204 1448.76 521.14C1469.86 504.376 1519.55 491.566 1614.45 483.793C1392.71 333.377 1227.7 251.56 1098.47 213.455Z" fill="#F6D3FF"/>
<path d="M744.959 328.394C752.89 386.973 781.239 459.093 815.537 532.676C883.45 502.831 961.774 477.645 1063.8 478.701C1022.41 415.626 991.021 355.043 990.03 307.35C880.135 283.464 805.87 298.738 744.959 328.394Z" fill="#EFDEFF"/>
<path d="M990.029 307.351C991.02 355.044 1022.41 415.627 1063.8 478.702C1114.83 479.217 1171.77 486.312 1236.28 502.67C1200.9 455.249 1176.82 410.589 1184.35 375.598C1108.82 340.987 1044.96 319.268 990.029 307.351Z" fill="#F4D7FF"/>
<path d="M1184.35 375.598C1176.82 410.588 1200.9 455.248 1236.28 502.669C1300.81 519.027 1372.94 544.674 1454.33 582.265C1435.06 558.649 1427.63 537.903 1448.76 521.139C1347.07 457.685 1259.86 410.182 1184.35 375.598Z" fill="#F5D4FF"/>
<path d="M425.776 593.882C448.827 632.285 471.909 670.661 489.197 707.222C520.83 739.504 553.175 761.523 586.543 775.524C572.199 728.78 553.269 676.836 534.865 625C501.466 622.482 465.65 613.029 425.776 593.882Z" fill="#B9B9FF"/>
<path d="M534.866 625C553.27 676.836 572.2 728.78 586.544 775.524C619.913 789.526 654.273 795.511 689.965 795.728C672.615 740.425 650.152 677.16 629.518 614.329C599.248 623.05 568.266 627.492 534.866 625Z" fill="#BBBAFF"/>
<path d="M629.518 614.329C650.153 677.16 672.615 740.425 689.965 795.727C761.287 796.133 837.814 773.466 921.684 745.652C890.019 681.25 849.804 606.231 815.538 532.675C747.593 562.493 690.027 596.915 629.518 614.329Z" fill="#C3BFFF"/>
<path d="M489.197 707.222C497.841 725.475 505.059 743.296 510.109 760.412C538.985 797.055 570.339 823.244 603.924 841.091C599.711 820.996 593.7 798.896 586.543 775.524C553.175 761.523 520.83 739.504 489.197 707.222Z" fill="#8888FF"/>
<path d="M586.544 775.524C593.701 798.896 599.712 820.996 603.926 841.091C637.511 858.938 673.359 868.443 711.219 871.693C705.983 849.052 698.609 823.378 689.965 795.727C654.273 795.511 619.912 789.526 586.544 775.524Z" fill="#8D8DFF"/>
<path d="M510.11 760.413C515.16 777.556 518.043 793.968 518.043 809.486C545.896 847.754 576.879 875.54 610.587 894.85C610.587 879.331 608.139 861.187 603.925 841.091C570.34 823.244 538.986 797.055 510.11 760.413Z" fill="#7979FF"/>
<path d="M603.925 841.091C608.139 861.186 610.587 879.331 610.587 894.849C644.296 914.159 680.7 925.019 719.459 929.434C719.459 913.915 716.424 894.307 711.219 871.693C673.358 868.443 637.51 858.938 603.925 841.091Z" fill="#7E7EFF"/>
<path d="M689.966 795.727C761.287 796.134 837.814 773.466 921.684 745.652C937.516 777.826 951.179 807.373 960.907 832.722C870.717 859.642 786.911 878.166 711.22 871.694C705.984 849.053 698.61 823.379 689.966 795.727Z" fill="#9B9AFF"/>
<path d="M711.219 871.694C786.909 878.166 870.716 859.642 960.906 832.722C970.635 858.098 976.398 879.277 976.398 894.795C883.667 921.309 796.947 938.236 719.46 929.434C719.46 913.916 716.424 894.307 711.219 871.694Z" fill="#8D8DFF"/>
<path d="M815.536 532.676C849.803 606.232 890.018 681.25 921.682 745.652C1005.55 717.839 1096.79 684.879 1197.64 664.757C1156.59 607.261 1105.19 541.749 1063.8 478.701C961.774 477.645 883.45 502.831 815.536 532.676Z" fill="#D9CFFF"/>
<path d="M1063.8 478.699C1105.19 541.747 1156.59 607.26 1197.64 664.756C1248.08 654.681 1300.88 647.829 1356.37 646.448C1318.47 600.326 1271.69 550.116 1236.28 502.667C1171.77 486.31 1114.83 479.214 1063.8 478.699Z" fill="#EFDEFF"/>
<path d="M1236.28 502.669C1271.69 550.117 1318.47 600.327 1356.37 646.449C1411.86 645.041 1470.01 649.103 1531.14 660.856C1504.8 632.447 1473.64 605.907 1454.33 582.264C1372.94 544.673 1300.81 519.026 1236.28 502.669Z" fill="#F7E3FF"/>
<path d="M921.682 745.654C1005.55 717.84 1096.79 684.881 1197.64 664.759C1218.18 693.52 1236.12 720.251 1248.92 743.704C1147.67 770.597 1051.1 805.831 960.906 832.724C951.177 807.375 937.514 777.828 921.682 745.654Z" fill="#C3BFFF"/>
<path d="M960.905 832.723C1051.1 805.83 1147.67 770.596 1248.92 743.703C1261.75 767.13 1269.4 787.252 1269.4 802.77C1167.9 832.208 1069.16 868.282 976.397 894.796C976.397 879.278 970.634 858.099 960.905 832.723Z" fill="#BBBAFF"/>
<path d="M1197.64 664.757C1238.7 722.253 1269.4 771.732 1269.4 802.769C1320.18 788.036 1371.61 774.955 1423.35 765.585C1423.35 734.575 1394.29 692.543 1356.37 646.449C1300.88 647.83 1248.08 654.682 1197.64 664.757Z" fill="#EBE5FF"/>
<path d="M1356.37 646.449C1394.29 692.544 1423.35 734.576 1423.35 765.585C1475.06 756.187 1527.08 750.5 1578.98 750.5C1578.98 719.463 1557.47 689.239 1531.14 660.857C1470.01 649.103 1411.86 645.041 1356.37 646.449Z" fill="#F8F2FF"/>
<path d="M518.043 809.487C518.043 836.949 506.486 860.727 489.197 882.637C520.831 914.946 555.065 938.372 591.625 954.676C602.995 940.755 610.587 922.312 610.587 894.851C576.879 875.541 545.896 847.755 518.043 809.487Z" fill="#7373FF"/>
<path d="M610.587 894.849C610.587 922.31 602.995 940.754 591.625 954.674C628.153 970.978 667.006 980.131 707.81 983.842C714.781 973.171 719.459 956.895 719.459 929.434C680.7 925.019 644.296 914.159 610.587 894.849Z" fill="#7979FF"/>
<path d="M719.46 929.433C719.46 956.895 714.781 973.171 707.81 983.841C789.387 991.289 878.803 976.99 973.268 954.619C975.158 940.699 976.398 922.256 976.398 894.794C883.667 921.308 796.947 938.235 719.46 929.433Z" fill="#8888FF"/>
<path d="M489.198 882.635C471.909 904.572 448.827 924.667 425.776 944.735C465.651 963.882 507.106 977.776 549.893 987.444C565.074 978.02 580.223 968.595 591.625 954.674C555.066 938.371 520.831 914.945 489.198 882.635Z" fill="#7B7BFF"/>
<path d="M591.625 954.674C580.224 968.595 565.075 978.02 549.893 987.444C592.68 997.086 636.861 1002.5 682.157 1004.72C691.483 999.631 700.809 994.54 707.811 983.842C667.007 980.132 628.154 970.978 591.625 954.674Z" fill="#8181FF"/>
<path d="M707.81 983.842C700.808 994.539 691.482 999.631 682.156 1004.72C772.811 1009.14 868.051 1000.66 966.328 987.416C968.837 977.992 971.378 968.567 973.268 954.62C878.802 976.99 789.386 991.289 707.81 983.842Z" fill="#9090FF"/>
<path d="M976.397 894.795C976.397 922.256 975.157 940.7 973.267 954.62C1067.73 932.25 1167.25 901.809 1269.12 876.975C1269.3 854.415 1269.4 830.23 1269.4 802.769C1167.9 832.207 1069.16 868.281 976.397 894.795Z" fill="#B9B9FF"/>
<path d="M1269.4 802.769C1269.4 830.231 1269.31 854.416 1269.12 876.976C1320.06 864.545 1371.58 853.522 1423.32 845.614C1423.35 819.56 1423.35 793.047 1423.35 765.585C1371.61 774.956 1320.18 788.037 1269.4 802.769Z" fill="#E9E9FF"/>
<path d="M1423.35 765.585C1423.35 793.046 1423.35 819.56 1423.32 845.613C1475.09 837.678 1527.08 832.858 1578.98 832.858C1578.98 805.423 1578.98 777.961 1578.98 750.5C1527.08 750.5 1475.06 756.187 1423.35 765.585Z" fill="#F8F8FF"/>
<path d="M973.269 954.62C971.379 968.568 968.839 977.992 966.329 987.417C1064.61 974.147 1165.86 956.11 1268.5 941.377C1268.75 920.469 1268.97 899.535 1269.12 876.975C1167.25 901.81 1067.73 932.25 973.269 954.62Z" fill="#BDBDFF"/>
<path d="M1269.12 876.974C1268.96 899.534 1268.75 920.468 1268.5 941.376C1319.84 934.037 1371.52 927.483 1423.32 922.798C1423.32 897.232 1423.32 871.639 1423.32 845.612C1371.58 853.52 1320.06 864.543 1269.12 876.974Z" fill="#EAEAFF"/>
<path d="M1423.32 845.614C1423.32 871.64 1423.32 897.233 1423.32 922.799C1475.12 918.114 1527.08 915.243 1578.98 915.243C1578.98 887.781 1578.98 860.32 1578.98 832.858C1527.08 832.858 1475.09 837.678 1423.32 845.614Z" fill="#F9F9FF"/>
<path d="M425.775 944.736C402.693 964.831 379.642 984.926 362.354 1006.86C410.5 1012.82 459.112 1017.18 508.158 1020.19C519.559 1006.27 534.71 996.842 549.892 987.445C507.105 977.776 465.65 963.883 425.775 944.736Z" fill="#9696FF"/>
<path d="M549.892 987.445C534.711 996.842 519.56 1006.27 508.158 1020.19C557.204 1023.22 606.683 1024.9 656.533 1025.6C663.536 1014.91 672.862 1009.81 682.157 1004.72C636.86 1002.5 592.679 997.086 549.892 987.445Z" fill="#9A9AFF"/>
<path d="M682.156 1004.72C672.862 1009.82 663.535 1014.91 656.533 1025.61C756.204 1026.96 857.331 1024.33 959.388 1020.19C961.278 1006.24 963.818 996.817 966.328 987.419C868.051 1000.66 772.811 1009.14 682.156 1004.72Z" fill="#A6A6FF"/>
<path d="M362.354 1006.86C345.035 1028.77 333.511 1052.55 333.511 1080.01C385.406 1080.01 437.302 1080.01 489.197 1080.01C489.197 1052.55 496.788 1034.11 508.158 1020.19C459.113 1017.18 410.501 1012.82 362.354 1006.86Z" fill="#C1C1FF"/>
<path d="M508.159 1020.19C496.788 1034.11 489.198 1052.55 489.198 1080.01C541.094 1080.01 592.989 1080.01 644.884 1080.01C644.884 1052.55 649.532 1036.27 656.534 1025.6C606.683 1024.9 557.204 1023.22 508.159 1020.19Z" fill="#C4C4FF"/>
<path d="M656.533 1025.6C649.531 1036.27 644.884 1052.55 644.884 1080.01C748.675 1080.01 852.467 1080.01 956.258 1080.01C956.258 1052.55 957.498 1034.11 959.388 1020.19C857.331 1024.33 756.204 1026.96 656.533 1025.6Z" fill="#CBCBFF"/>
<path d="M966.328 987.418C963.818 996.815 961.278 1006.24 959.388 1020.19C1061.48 1016.04 1164.46 1010.41 1267.88 1005.81C1268.07 983.247 1268.28 962.312 1268.5 941.377C1165.86 956.11 1064.6 974.147 966.328 987.418Z" fill="#CACAFF"/>
<path d="M1268.5 941.376C1268.28 962.311 1268.07 983.246 1267.88 1005.81C1319.62 1003.5 1371.42 1001.45 1423.32 999.983C1423.32 973.957 1423.32 948.364 1423.32 922.798C1371.52 927.483 1319.84 934.037 1268.5 941.376Z" fill="#EEEEFF"/>
<path d="M1423.32 922.798C1423.32 948.364 1423.32 973.957 1423.32 999.983C1475.18 998.521 1527.08 997.627 1578.98 997.627C1578.98 970.165 1578.98 942.704 1578.98 915.242C1527.08 915.242 1475.12 918.113 1423.32 922.798Z" fill="#FAFAFF"/>
<path d="M959.388 1020.19C957.498 1034.11 956.258 1052.55 956.258 1080.01C1060.05 1080.01 1163.84 1080.01 1267.6 1080.01C1267.6 1052.55 1267.73 1028.37 1267.88 1005.81C1164.46 1010.41 1061.48 1016.04 959.388 1020.19Z" fill="#E0E0FF"/>
<path d="M1267.88 1005.81C1267.73 1028.37 1267.6 1052.55 1267.6 1080.01C1319.5 1080.01 1371.39 1080.01 1423.29 1080.01C1423.29 1052.55 1423.29 1026.04 1423.32 999.984C1371.42 1001.45 1319.62 1003.5 1267.88 1005.81Z" fill="#F5F5FF"/>
<path d="M1423.32 999.984C1423.29 1026.04 1423.29 1052.55 1423.29 1080.01C1475.18 1080.01 1527.08 1080.01 1578.98 1080.01C1578.98 1052.55 1578.98 1025.09 1578.98 997.628C1527.08 997.628 1475.18 998.522 1423.32 999.984Z" fill="#FCFCFF"/>
<path d="M1610.24 54.1026C1627.83 115.499 1649.43 182.446 1665.29 244.871C1690.73 252.481 1712.26 249.583 1732.03 240.944C1719.88 178.817 1702.94 112.817 1689.02 52.3419C1663.71 55.3752 1637.72 56.4859 1610.24 54.1026Z" fill="#FAE8FF"/>
<path d="M1689.03 52.3422C1702.94 112.817 1719.88 178.817 1732.03 240.944C1751.8 232.305 1769.8 217.951 1788.17 202.622C1781.35 148.512 1771.69 92.099 1763.72 39.2071C1738.97 44.4069 1714.34 49.3361 1689.03 52.3422Z" fill="#FBEBFF"/>
<path d="M1665.29 244.871C1681.12 307.269 1691.29 365.144 1686.05 408.341C1709.44 421.205 1728.65 418.225 1746.09 406.525C1751.45 361.406 1744.14 303.098 1732.03 240.944C1712.26 249.583 1690.73 252.481 1665.29 244.871Z" fill="#F7D8FF"/>
<path d="M1732.03 240.945C1744.14 303.099 1751.45 361.407 1746.09 406.526C1763.51 394.827 1779.18 374.406 1795.48 352.388C1798.95 308.596 1794.99 256.76 1788.17 202.623C1769.8 217.951 1751.8 232.305 1732.03 240.945Z" fill="#F8DCFF"/>
<path d="M1686.05 408.341C1680.82 451.537 1660.18 480.055 1614.45 483.792C1636.91 499.04 1660.15 500.068 1684.1 493.027C1722.67 483.602 1740.7 451.645 1746.1 406.525C1728.65 418.225 1709.44 421.205 1686.05 408.341Z" fill="#F5CFFF"/>
<path d="M1746.09 406.524C1740.7 451.643 1722.67 483.601 1684.1 493.025C1708.08 485.984 1732.8 470.9 1758.3 453.892C1781.14 431.955 1792.01 396.205 1795.48 352.386C1779.18 374.404 1763.51 394.824 1746.09 406.524Z" fill="#F6D2FF"/>
<path d="M1788.17 202.623C1794.98 256.761 1798.95 308.596 1795.48 352.389C1811.78 330.398 1828.69 306.755 1848.65 288.637C1849.79 247.228 1848.62 203.273 1846.57 158.587C1825.32 171.045 1806.54 187.294 1788.17 202.623Z" fill="#FAE5FF"/>
<path d="M1846.57 158.587C1848.62 203.273 1849.79 247.228 1848.65 288.637C1868.6 270.519 1891.59 257.925 1920 257.925C1920 217.789 1920 177.653 1920 137.544C1891.59 137.544 1867.83 146.156 1846.57 158.587Z" fill="#FCF1FF"/>
<path d="M1795.48 352.388C1792.01 396.208 1781.14 431.958 1758.3 453.895C1783.77 436.887 1809.98 417.983 1836.93 403.331C1844.09 368.909 1847.53 330.046 1848.65 288.636C1828.69 306.754 1811.78 330.397 1795.48 352.388Z" fill="#F8DCFF"/>
<path d="M1848.65 288.635C1847.53 330.044 1844.09 368.908 1836.94 403.33C1863.89 388.678 1891.59 378.279 1920 378.279C1920 338.17 1920 298.033 1920 257.923C1891.59 257.923 1868.6 270.517 1848.65 288.635Z" fill="#FBEBFF"/>
<path d="M1614.45 483.794C1519.55 491.566 1469.85 504.376 1448.76 521.14C1472.12 533.977 1506.17 537.308 1545.85 535.033C1562.74 518.459 1604.01 504.43 1684.1 493.028C1660.15 500.07 1636.91 499.041 1614.45 483.794Z" fill="#F5CCFF"/>
<path d="M1684.1 493.027C1604.01 504.429 1562.74 518.458 1545.86 535.032C1585.54 532.784 1630.87 524.958 1676.82 515.506C1686.55 493.759 1710.84 473.285 1758.3 453.894C1732.8 470.902 1708.08 485.986 1684.1 493.027Z" fill="#F5CFFF"/>
<path d="M1448.76 521.139C1427.63 537.903 1435.06 558.648 1454.33 582.264C1479.77 589.901 1514.5 592.582 1554.03 592.338C1536.5 570.754 1528.97 551.634 1545.85 535.032C1506.17 537.307 1472.12 533.976 1448.76 521.139Z" fill="#F6D3FF"/>
<path d="M1545.85 535.033C1528.97 551.634 1536.5 570.754 1554.03 592.339C1593.6 592.095 1637.96 588.899 1682.7 584.756C1671.95 560.273 1667.12 537.253 1676.82 515.506C1630.87 524.958 1585.54 532.785 1545.85 535.033Z" fill="#F7D6FF"/>
<path d="M1758.3 453.895C1710.84 473.286 1686.55 493.76 1676.82 515.507C1722.8 506.082 1769.36 495.032 1811.59 486.338C1814.57 458.362 1822.13 430.739 1836.94 403.332C1809.98 417.983 1783.77 436.887 1758.3 453.895Z" fill="#F7D8FF"/>
<path d="M1836.94 403.331C1822.13 430.738 1814.57 458.362 1811.59 486.338C1853.79 477.672 1891.59 471.335 1920 471.335C1920 440.326 1920 409.316 1920 378.28C1891.59 378.28 1863.89 388.679 1836.94 403.331Z" fill="#FAE8FF"/>
<path d="M1676.82 515.506C1667.12 537.253 1671.95 560.273 1682.7 584.756C1727.44 580.612 1772.55 575.521 1813.61 571.458C1810.17 542.67 1808.59 514.341 1811.59 486.338C1769.36 495.031 1722.8 506.081 1676.82 515.506Z" fill="#F8DEFF"/>
<path d="M1811.59 486.338C1808.59 514.342 1810.17 542.67 1813.61 571.459C1854.66 567.424 1891.59 564.39 1920 564.39C1920 533.381 1920 502.345 1920 471.336C1891.59 471.336 1853.79 477.672 1811.59 486.338Z" fill="#FBECFF"/>
<path d="M1454.33 582.263C1505.21 597.511 1593.23 593.042 1682.7 584.755C1693.49 609.238 1710.19 635.155 1724.19 662.725C1654.91 664.757 1586.1 665.596 1531.14 660.856C1504.8 632.447 1473.63 605.906 1454.33 582.263Z" fill="#FAE5FF"/>
<path d="M1531.14 660.857C1586.1 665.596 1654.91 664.757 1724.19 662.726C1738.19 690.269 1749.5 719.464 1749.5 750.5C1692.65 750.5 1635.83 750.5 1578.98 750.5C1578.98 719.464 1557.47 689.239 1531.14 660.857Z" fill="#FDF7FF"/>
<path d="M1682.71 584.756C1772.18 576.469 1863.18 564.39 1920 564.39C1920 595.399 1920 626.436 1920 657.445C1863.18 657.445 1793.44 660.668 1724.19 662.727C1710.19 635.157 1693.49 609.239 1682.71 584.756Z" fill="#FBEBFF"/>
<path d="M1724.19 662.726C1793.44 660.668 1863.18 657.445 1920 657.445C1920 688.454 1920 719.464 1920 750.5C1863.18 750.5 1806.33 750.5 1749.5 750.5C1749.5 719.464 1738.19 690.269 1724.19 662.726Z" fill="#FDF9FF"/>
</g>
<defs>
<clipPath id="clip0_1924_10776">
<rect width="1920" height="1080" fill="white"/>
</clipPath>
</defs>
</svg>
