<svg width="80" height="80" viewBox="0 0 80 80" fill="none" xmlns="http://www.w3.org/2000/svg">
<path d="M39.9111 7.5C22.0107 7.5 7.5 22.0107 7.5 39.9111C7.5 57.8115 22.0107 72.3223 39.9111 72.3223C57.8115 72.3223 72.3223 57.8115 72.3223 39.9111C72.3223 22.0107 57.8115 7.5 39.9111 7.5ZM39.4224 13.9365C41.7456 13.9365 43.6245 15.8154 43.6245 18.1196C43.6245 20.4429 41.7456 22.3218 39.4224 22.3218C37.1181 22.3218 35.2393 20.4429 35.2393 18.1196C35.2329 15.8154 37.1118 13.9365 39.4224 13.9365ZM57.583 27.4761L45.1162 29.0503L45.1225 41.5298L51.1655 61.6962C51.4829 62.9721 50.7212 64.2418 49.458 64.5591C48.2011 64.8765 46.9126 64.1782 46.5952 62.9087L40.4062 44.5512H38.502L32.8081 63.2895C32.332 64.5146 30.9672 65.0732 29.7485 64.5971C28.5361 64.1275 27.7998 62.75 28.2759 61.5249L33.5064 41.7329V29.0503L22.0171 27.4887C20.8364 27.3935 20.0366 26.3589 20.1319 25.1782C20.2207 23.9912 21.2935 23.1089 22.4677 23.2041L36.4263 24.4038H42.5454L57.4052 23.1787C58.5859 23.1342 59.5889 24.0484 59.627 25.2417C59.6777 26.416 58.7636 27.4252 57.583 27.4761Z" fill="#00AA72"/>
</svg>
