<svg width="80" height="80" viewBox="0 0 80 80" fill="none" xmlns="http://www.w3.org/2000/svg">
<path d="M40.5 47.1481C44.4212 47.1481 47.6 43.9473 47.6 39.9988C47.6 36.0504 44.4212 32.8496 40.5 32.8496C36.5788 32.8496 33.4 36.0504 33.4 39.9988C33.4 43.9473 36.5788 47.1481 40.5 47.1481Z" fill="#149ECA"/>
<path d="M40.5 56.0856C60.1061 56.0856 76 48.8838 76 39.9998C76 31.1159 60.1061 23.9141 40.5 23.9141C20.8939 23.9141 5 31.1159 5 39.9998C5 48.8838 20.8939 56.0856 40.5 56.0856Z" stroke="#149ECA"/>
<path d="M26.6652 48.0429C36.4683 65.14 50.6092 75.3991 58.25 70.9571C65.8907 66.5151 64.1378 49.0542 54.3347 31.9571C44.5317 14.86 30.3907 4.60093 22.75 9.04289C15.1092 13.4849 16.8622 30.9458 26.6652 48.0429Z" stroke="#149ECA"/>
<path d="M26.6652 31.9573C16.8622 49.0544 15.1092 66.5153 22.75 70.9573C30.3907 75.3992 44.5317 65.1402 54.3347 48.043C64.1378 30.9459 65.8907 13.485 58.25 9.04305C50.6092 4.60108 36.4683 14.8601 26.6652 31.9573Z" stroke="#149ECA"/>
</svg>
