<svg width="80" height="80" viewBox="0 0 80 80" fill="none" xmlns="http://www.w3.org/2000/svg">
<path d="M4.625 32.4248V29.8248L15.3751 23.7998V26.4498L7.1 31.0248V31.2248L15.3751 35.7748V38.4498L4.625 32.4248ZM19.6153 53.6748V51.0748L30.3653 45.0498V47.6998L22.0903 52.2748V52.4748L30.3653 57.0248V59.6998L19.6153 53.6748Z" fill="#201947"/>
<path d="M19.5903 38.7498V25.8498H22.3153V28.0498H22.4403C22.5737 27.7164 22.7403 27.3998 22.9403 27.0998C23.157 26.7832 23.4153 26.5164 23.7153 26.2998C24.0153 26.0664 24.3653 25.8832 24.7653 25.7498C25.1653 25.6164 25.632 25.5498 26.1653 25.5498C27.4653 25.5498 28.5153 25.9748 29.3153 26.8248C30.1153 27.6748 30.5153 28.8832 30.5153 30.4498V38.7498H27.7903V30.8498C27.7903 28.7998 26.8987 27.7748 25.1153 27.7748C24.7653 27.7748 24.4237 27.8248 24.0903 27.9248C23.757 28.0082 23.457 28.1414 23.1903 28.3248C22.9237 28.5082 22.707 28.7414 22.5403 29.0248C22.3903 29.3082 22.3153 29.6332 22.3153 29.9998V38.7498H19.5903ZM44.7806 38.7498C43.9972 38.7498 43.4056 38.5498 43.0056 38.1498C42.6222 37.7498 42.3888 37.2248 42.3056 36.5748H42.1806C41.9306 37.3582 41.4722 37.9664 40.8056 38.3998C40.1556 38.8332 39.3222 39.0498 38.3056 39.0498C36.9888 39.0498 35.9388 38.7082 35.1556 38.0248C34.3722 37.3248 33.9806 36.3664 33.9806 35.1498C33.9806 33.8998 34.4388 32.9498 35.3556 32.2998C36.2888 31.6332 37.7138 31.2998 39.6306 31.2998H42.1056V30.2998C42.1056 28.5498 41.1806 27.6748 39.3306 27.6748C38.4972 27.6748 37.8222 27.8414 37.3056 28.1748C36.7888 28.4914 36.3556 28.9164 36.0056 29.4498L34.3806 28.1248C34.7472 27.4248 35.3638 26.8248 36.2306 26.3248C37.0972 25.8082 38.2138 25.5498 39.5806 25.5498C41.2138 25.5498 42.4972 25.9414 43.4306 26.7248C44.3638 27.5082 44.8306 28.6414 44.8306 30.1248V36.5998H46.4556V38.7498H44.7806ZM39.0806 37.0498C39.9638 37.0498 40.6888 36.8498 41.2556 36.4498C41.8222 36.0498 42.1056 35.5332 42.1056 34.8998V33.0248H39.6806C37.7138 33.0248 36.7306 33.6164 36.7306 34.7998V35.2998C36.7306 35.8832 36.9388 36.3248 37.3556 36.6248C37.7722 36.9082 38.3472 37.0498 39.0806 37.0498ZM53.2958 38.7498L48.6708 25.8498H51.4958L53.2708 31.2998L54.9458 36.4748H55.0958L56.7708 31.2998L58.5458 25.8498H61.2708L56.6458 38.7498H53.2958ZM42.6556 57.7998H42.5306C42.3972 58.1332 42.2222 58.4582 42.0056 58.7748C41.8056 59.0748 41.5556 59.3414 41.2556 59.5748C40.9556 59.7914 40.6056 59.9664 40.2056 60.0998C39.8056 60.2332 39.3388 60.2998 38.8056 60.2998C37.5056 60.2998 36.4556 59.8748 35.6556 59.0248C34.8556 58.1748 34.4556 56.9664 34.4556 55.3998V47.0998H37.1806V54.9998C37.1806 57.0498 38.0722 58.0748 39.8556 58.0748C40.2056 58.0748 40.5472 58.0332 40.8806 57.9498C41.2138 57.8498 41.5138 57.7082 41.7806 57.5248C42.0472 57.3414 42.2556 57.1164 42.4056 56.8498C42.5722 56.5664 42.6556 56.2332 42.6556 55.8498V47.0998H45.3806V59.9998H42.6556V57.7998ZM49.3458 57.7998H53.6208V43.6998H49.3458V41.4998H56.3458V57.7998H60.6208V59.9998H49.3458V57.7998Z" fill="#E4B164"/>
<path d="M64.5859 35.7998L72.8609 31.2248V31.0248L64.5859 26.4748V23.7998L75.3359 29.8248V32.4248L64.5859 38.4498V35.7998ZM64.5859 57.0498L72.8609 52.4748V52.2748L64.5859 47.7248V45.0498L75.3359 51.0748V53.6748L64.5859 59.6998V57.0498Z" fill="#201947"/>
</svg>
