<svg width="120" height="120" viewBox="0 0 120 120" fill="none" xmlns="http://www.w3.org/2000/svg">
<path d="M59.9995 100.536C82.3894 100.536 100.54 82.3855 100.54 59.9956C100.54 37.6057 82.3894 19.4551 59.9995 19.4551C37.6096 19.4551 19.459 37.6057 19.459 59.9956C19.459 82.3855 37.6096 100.536 59.9995 100.536Z" stroke="black" stroke-width="1.62162" stroke-linecap="round" stroke-dasharray="0.32 4.86"/>
<path d="M59.9999 95.6737C79.7031 95.6737 95.6756 79.7011 95.6756 59.998C95.6756 40.2948 79.7031 24.3223 59.9999 24.3223C40.2968 24.3223 24.3242 40.2948 24.3242 59.998C24.3242 79.7011 40.2968 95.6737 59.9999 95.6737Z" stroke="black" stroke-width="1.62162" stroke-linecap="round" stroke-dasharray="0.32 6.49"/>
<path d="M59.9992 106.218C85.5237 106.218 106.215 85.5259 106.215 60.0014C106.215 34.4769 85.5237 13.7852 59.9992 13.7852C34.4747 13.7852 13.783 34.4769 13.783 60.0014C13.783 85.5259 34.4747 106.218 59.9992 106.218Z" stroke="black" stroke-width="1.62162"/>
<path d="M40.7123 11.0064C44.8145 11.8262 49.0645 10.6875 52.2073 7.92636C56.6647 4.01023 63.3359 4.01023 67.7933 7.92636C70.9361 10.6875 75.1861 11.8262 79.2883 11.0064C85.1066 9.84365 90.8841 13.1793 92.7862 18.7994C94.1274 22.762 97.2386 25.8732 101.201 27.2144C106.821 29.1165 110.157 34.894 108.994 40.7123C108.174 44.8145 109.313 49.0645 112.074 52.2073C115.99 56.6647 115.99 63.3359 112.074 67.7933C109.313 70.9361 108.174 75.1861 108.994 79.2883C110.157 85.1066 106.821 90.8841 101.201 92.7862C97.2386 94.1274 94.1274 97.2386 92.7862 101.201C90.8841 106.821 85.1066 110.157 79.2883 108.994C75.1861 108.174 70.9361 109.313 67.7933 112.074C63.3359 115.99 56.6647 115.99 52.2073 112.074C49.0645 109.313 44.8145 108.174 40.7123 108.994C34.894 110.157 29.1165 106.821 27.2144 101.201C25.8732 97.2386 22.762 94.1274 18.7994 92.7862C13.1793 90.8841 9.84365 85.1066 11.0064 79.2883C11.8262 75.1861 10.6875 70.9361 7.92636 67.7933C4.01023 63.3359 4.01023 56.6647 7.92636 52.2073C10.6875 49.0645 11.8262 44.8145 11.0064 40.7123C9.84365 34.894 13.1793 29.1165 18.7994 27.2144C22.762 25.8732 25.8732 22.762 27.2144 18.7994C29.1165 13.1793 34.894 9.84365 40.7123 11.0064Z" stroke="black" stroke-width="1.62162"/>
<path d="M69 73H66.9569V62.8708H57.9041L57.3229 62.6361C55.5382 62.2509 54.1468 61.3481 53.1487 59.9278C52.1507 58.5074 51.6517 56.8403 51.6517 54.9264C51.6517 53.6023 51.8924 52.3926 52.3738 51.2972C52.8552 50.1898 53.5479 49.275 54.4521 48.5528C55.3679 47.8185 56.4599 47.3491 57.728 47.1444C58.045 47.0843 58.3444 47.0481 58.6262 47.0361C58.9198 47.012 59.1898 47 59.4364 47H69V73ZM53.3777 73H51L56.4951 61.4444L58.3796 62.4194L53.3777 73ZM66.9569 60.8306V49.0222H59.4716C59.272 49.0222 59.0313 49.0343 58.7495 49.0583C58.4677 49.0824 58.1859 49.1245 57.9041 49.1847C56.9883 49.3773 56.225 49.7625 55.6145 50.3403C55.0039 50.906 54.5401 51.5921 54.2231 52.3986C53.9178 53.1931 53.7652 54.0356 53.7652 54.9264C53.7652 55.8171 53.9178 56.6657 54.2231 57.4722C54.5401 58.2787 55.0039 58.9708 55.6145 59.5486C56.225 60.1144 56.9883 60.4935 57.9041 60.6861C58.1859 60.7343 58.4677 60.7704 58.7495 60.7944C59.0313 60.8185 59.272 60.8306 59.4716 60.8306H66.9569Z" fill="black"/>
</svg>
