<svg width="183" height="40" viewBox="0 0 183 40" fill="none" xmlns="http://www.w3.org/2000/svg">
<path d="M5.296 25.24C4.46933 25.24 3.72267 25.0987 3.056 24.816C2.39467 24.528 1.848 24.12 1.416 23.592C0.989333 23.0587 0.712 22.4267 0.584 21.696L2.328 21.432C2.504 22.136 2.872 22.6853 3.432 23.08C3.992 23.4693 4.64533 23.664 5.392 23.664C5.856 23.664 6.28267 23.592 6.672 23.448C7.06133 23.2987 7.37333 23.088 7.608 22.816C7.848 22.5387 7.968 22.208 7.968 21.824C7.968 21.616 7.93067 21.432 7.856 21.272C7.78667 21.112 7.688 20.9733 7.56 20.856C7.43733 20.7333 7.28533 20.6293 7.104 20.544C6.928 20.4533 6.73333 20.376 6.52 20.312L3.568 19.44C3.28 19.3547 2.98667 19.2453 2.688 19.112C2.38933 18.9733 2.11467 18.7947 1.864 18.576C1.61867 18.352 1.41867 18.0773 1.264 17.752C1.10933 17.4213 1.032 17.0213 1.032 16.552C1.032 15.8427 1.21333 15.2427 1.576 14.752C1.944 14.256 2.44 13.8827 3.064 13.632C3.688 13.376 4.38667 13.248 5.16 13.248C5.93867 13.2587 6.63467 13.3973 7.248 13.664C7.86667 13.9307 8.37867 14.3147 8.784 14.816C9.19467 15.312 9.47733 15.9147 9.632 16.624L7.84 16.928C7.76 16.496 7.58933 16.1253 7.328 15.816C7.06667 15.5013 6.74667 15.2613 6.368 15.096C5.98933 14.9253 5.57867 14.8373 5.136 14.832C4.70933 14.8213 4.31733 14.8853 3.96 15.024C3.608 15.1627 3.32533 15.3573 3.112 15.608C2.904 15.8587 2.8 16.1467 2.8 16.472C2.8 16.792 2.89333 17.0507 3.08 17.248C3.26667 17.4453 3.496 17.6027 3.768 17.72C4.04533 17.832 4.32 17.9253 4.592 18L6.72 18.6C6.98667 18.6747 7.288 18.776 7.624 18.904C7.96533 19.0267 8.29333 19.2 8.608 19.424C8.928 19.648 9.192 19.9467 9.4 20.32C9.608 20.688 9.712 21.152 9.712 21.712C9.712 22.2933 9.59467 22.8053 9.36 23.248C9.12533 23.6853 8.80267 24.0533 8.392 24.352C7.98667 24.6453 7.51733 24.8667 6.984 25.016C6.45067 25.1653 5.888 25.24 5.296 25.24ZM13.8169 25V13.48H15.4889V18.448H21.2489V13.48H22.9289V25H21.2489V20.024H15.4889V25H13.8169ZM32.3842 25.24C31.2322 25.24 30.2509 24.9893 29.4402 24.488C28.6296 23.9813 28.0082 23.2773 27.5762 22.376C27.1496 21.4747 26.9362 20.4293 26.9362 19.24C26.9362 18.0507 27.1496 17.0053 27.5762 16.104C28.0082 15.2027 28.6296 14.5013 29.4402 14C30.2509 13.4933 31.2322 13.24 32.3842 13.24C33.5309 13.24 34.5096 13.4933 35.3202 14C36.1362 14.5013 36.7576 15.2027 37.1842 16.104C37.6109 17.0053 37.8243 18.0507 37.8243 19.24C37.8243 20.4293 37.6109 21.4747 37.1842 22.376C36.7576 23.2773 36.1362 23.9813 35.3202 24.488C34.5096 24.9893 33.5309 25.24 32.3842 25.24ZM32.3842 23.648C33.2002 23.6587 33.8776 23.48 34.4162 23.112C34.9602 22.7387 35.3682 22.2213 35.6402 21.56C35.9122 20.8933 36.0482 20.12 36.0482 19.24C36.0482 18.36 35.9122 17.592 35.6402 16.936C35.3682 16.2747 34.9602 15.76 34.4162 15.392C33.8776 15.024 33.2002 14.8373 32.3842 14.832C31.5682 14.8213 30.8882 15 30.3442 15.368C29.8056 15.736 29.4002 16.2533 29.1282 16.92C28.8562 17.5867 28.7176 18.36 28.7122 19.24C28.7069 20.12 28.8402 20.8907 29.1122 21.552C29.3842 22.208 29.7922 22.72 30.3362 23.088C30.8856 23.456 31.5682 23.6427 32.3842 23.648ZM43.7756 25L40.4316 13.48H42.1836L44.6076 22.192L47.0316 13.488L48.7916 13.48L51.2156 22.192L53.6396 13.48H55.3996L52.0476 25H50.3836L47.9116 16.384L45.4396 25H43.7756ZM63.6374 25.24C62.4854 25.24 61.504 24.9893 60.6934 24.488C59.8827 23.9813 59.2614 23.2773 58.8294 22.376C58.4027 21.4747 58.1894 20.4293 58.1894 19.24C58.1894 18.0507 58.4027 17.0053 58.8294 16.104C59.2614 15.2027 59.8827 14.5013 60.6934 14C61.504 13.4933 62.4854 13.24 63.6374 13.24C64.9654 13.24 66.064 13.576 66.9334 14.248C67.808 14.92 68.416 15.824 68.7574 16.96L67.0614 17.416C66.8374 16.6107 66.4374 15.9787 65.8614 15.52C65.2907 15.0613 64.5494 14.832 63.6374 14.832C62.8214 14.832 62.1414 15.016 61.5974 15.384C61.0534 15.752 60.6427 16.2667 60.3654 16.928C60.0934 17.5893 59.9574 18.36 59.9574 19.24C59.952 20.12 60.0854 20.8907 60.3574 21.552C60.6347 22.2133 61.0454 22.728 61.5894 23.096C62.1387 23.464 62.8214 23.648 63.6374 23.648C64.5494 23.648 65.2907 23.4187 65.8614 22.96C66.4374 22.496 66.8374 21.864 67.0614 21.064L68.7574 21.52C68.416 22.656 67.808 23.56 66.9334 24.232C66.064 24.904 64.9654 25.24 63.6374 25.24ZM71.8044 25L75.5484 13.48H77.9564L81.7004 25H79.9644L76.5164 14.488H76.9484L73.5404 25H71.8044ZM73.7484 22.4V20.832H79.7644V22.4H73.7484ZM89.3991 25.24C88.5725 25.24 87.8258 25.0987 87.1591 24.816C86.4978 24.528 85.9511 24.12 85.5191 23.592C85.0925 23.0587 84.8151 22.4267 84.6871 21.696L86.4311 21.432C86.6071 22.136 86.9751 22.6853 87.5351 23.08C88.0951 23.4693 88.7485 23.664 89.4951 23.664C89.9591 23.664 90.3858 23.592 90.7751 23.448C91.1645 23.2987 91.4765 23.088 91.7111 22.816C91.9511 22.5387 92.0711 22.208 92.0711 21.824C92.0711 21.616 92.0338 21.432 91.9591 21.272C91.8898 21.112 91.7911 20.9733 91.6631 20.856C91.5405 20.7333 91.3885 20.6293 91.2071 20.544C91.0311 20.4533 90.8365 20.376 90.6231 20.312L87.6711 19.44C87.3831 19.3547 87.0898 19.2453 86.7911 19.112C86.4925 18.9733 86.2178 18.7947 85.9671 18.576C85.7218 18.352 85.5218 18.0773 85.3671 17.752C85.2125 17.4213 85.1351 17.0213 85.1351 16.552C85.1351 15.8427 85.3165 15.2427 85.6791 14.752C86.0471 14.256 86.5431 13.8827 87.1671 13.632C87.7911 13.376 88.4898 13.248 89.2631 13.248C90.0418 13.2587 90.7378 13.3973 91.3511 13.664C91.9698 13.9307 92.4818 14.3147 92.8871 14.816C93.2978 15.312 93.5805 15.9147 93.7351 16.624L91.9431 16.928C91.8631 16.496 91.6925 16.1253 91.4311 15.816C91.1698 15.5013 90.8498 15.2613 90.4711 15.096C90.0925 14.9253 89.6818 14.8373 89.2391 14.832C88.8125 14.8213 88.4205 14.8853 88.0631 15.024C87.7111 15.1627 87.4285 15.3573 87.2151 15.608C87.0071 15.8587 86.9031 16.1467 86.9031 16.472C86.9031 16.792 86.9965 17.0507 87.1831 17.248C87.3698 17.4453 87.5991 17.6027 87.8711 17.72C88.1485 17.832 88.4231 17.9253 88.6951 18L90.8231 18.6C91.0898 18.6747 91.3911 18.776 91.7271 18.904C92.0685 19.0267 92.3965 19.2 92.7111 19.424C93.0311 19.648 93.2951 19.9467 93.5031 20.32C93.7111 20.688 93.8151 21.152 93.8151 21.712C93.8151 22.2933 93.6978 22.8053 93.4631 23.248C93.2285 23.6853 92.9058 24.0533 92.4951 24.352C92.0898 24.6453 91.6205 24.8667 91.0871 25.016C90.5538 25.1653 89.9911 25.24 89.3991 25.24ZM97.92 25V13.48H105.28V15.056H99.592V18.288H104.32V19.864H99.592V23.424H105.28V25H97.92Z" fill="white" fill-opacity="0.2"/>
<path fill-rule="evenodd" clip-rule="evenodd" d="M137 18.3921C137 17.5133 137.812 16.8008 138.813 16.8008H141V17.5965H138.813C138.312 17.5965 137.906 17.9527 137.906 18.3921V21.6094C137.906 22.0489 138.312 22.4051 138.813 22.4051H141V23.2008H138.813C137.812 23.2008 137 22.4883 137 21.6094V18.3921Z" fill="white" fill-opacity="0.2"/>
<path fill-rule="evenodd" clip-rule="evenodd" d="M143.391 28C142.512 28 141.8 27.1884 141.8 26.1872V24H142.595V26.1872C142.595 26.6878 142.952 27.0936 143.391 27.0936H146.608C147.048 27.0936 147.404 26.6878 147.404 26.1872V24H148.2V26.1872C148.2 27.1884 147.487 28 146.608 28H143.391Z" fill="white" fill-opacity="0.2"/>
<path fill-rule="evenodd" clip-rule="evenodd" d="M143.391 12C142.512 12 141.8 12.8116 141.8 13.8128V16H142.595V13.8128C142.595 13.3122 142.952 12.9064 143.391 12.9064H146.608C147.048 12.9064 147.404 13.3122 147.404 13.8128V16H148.2V13.8128C148.2 12.8116 147.487 12 146.608 12H143.391Z" fill="white" fill-opacity="0.2"/>
<path fill-rule="evenodd" clip-rule="evenodd" d="M141.051 22.4004H141V23.1751H141.051C141.478 23.1751 141.825 23.522 141.825 23.9499V24.0004H142.6V23.9499C142.6 23.0941 141.906 22.4004 141.051 22.4004Z" fill="white" fill-opacity="0.2"/>
<path fill-rule="evenodd" clip-rule="evenodd" d="M143.391 20H145V19.2301H143.391C142.952 19.2301 142.596 18.8854 142.596 18.4603V16H141.8V18.4603C141.8 19.3106 142.512 20 143.391 20Z" fill="white" fill-opacity="0.2"/>
<path fill-rule="evenodd" clip-rule="evenodd" d="M148.949 17.5996H149V16.8249H148.949C148.522 16.8249 148.175 16.478 148.175 16.0501V15.9996H147.4V16.0501C147.4 16.9059 148.094 17.5996 148.949 17.5996Z" fill="white" fill-opacity="0.2"/>
<path fill-rule="evenodd" clip-rule="evenodd" d="M146.609 19.1992H145V20.0021H146.609C147.048 20.0021 147.404 20.3616 147.404 20.805V23.9992H148.2V20.805C148.2 19.9182 147.488 19.1992 146.609 19.1992Z" fill="white" fill-opacity="0.2"/>
<path fill-rule="evenodd" clip-rule="evenodd" d="M153 18.3921C153 17.5133 152.188 16.8008 151.187 16.8008H149V17.5965H151.187C151.688 17.5965 152.094 17.9527 152.094 18.3921V21.6094C152.094 22.0489 151.688 22.4051 151.187 22.4051H149V23.2008H151.187C152.188 23.2008 153 22.4883 153 21.6094V18.3921Z" fill="white" fill-opacity="0.2"/>
</svg>
