<svg width="446" height="335" viewBox="0 0 446 335" fill="none" xmlns="http://www.w3.org/2000/svg">
    <g clip-path="url(#clip0_2489_7320)">
        <mask id="mask0_2489_7320" style="mask-type:luminance" maskUnits="userSpaceOnUse" x="0" y="0" width="446" height="335">
            <path d="M446 0H0V335H446V0Z" fill="white"/>
        </mask>
        <g mask="url(#mask0_2489_7320)">
            <path d="M222.999 133.299C234.763 133.299 244.299 123.763 244.299 111.999C244.299 100.236 234.763 90.6992 222.999 90.6992C211.236 90.6992 201.699 100.236 201.699 111.999C201.699 123.763 211.236 133.299 222.999 133.299Z" stroke="#F1F1F1" stroke-width="2"/>
            <path d="M222.257 121.405C227.863 121.405 232.407 116.861 232.407 111.255C232.407 105.65 227.863 101.105 222.257 101.105C216.652 101.105 212.107 105.65 212.107 111.255C212.107 116.861 216.652 121.405 222.257 121.405Z" stroke="#F1F1F1" stroke-width="2"/>
            <path d="M222.257 143.707C240.178 143.707 254.707 129.178 254.707 111.257C254.707 93.335 240.178 78.8066 222.257 78.8066C204.335 78.8066 189.807 93.335 189.807 111.257C189.807 129.178 204.335 143.707 222.257 143.707Z" stroke="#F1F1F1" stroke-width="2"/>
            <path d="M223 155.6C247.08 155.6 266.6 136.08 266.6 112C266.6 87.9208 247.08 68.4004 223 68.4004C198.921 68.4004 179.4 87.9208 179.4 112C179.4 136.08 198.921 155.6 223 155.6Z" stroke="#F1F1F1" stroke-width="2"/>
            <path d="M222.256 166.008C252.493 166.008 277.006 141.495 277.006 111.258C277.006 81.0202 252.493 56.5078 222.256 56.5078C192.018 56.5078 167.506 81.0202 167.506 111.258C167.506 141.495 192.018 166.008 222.256 166.008Z" stroke="#F1F1F1" stroke-width="2"/>
            <path d="M223 177.9C259.395 177.9 288.9 148.395 288.9 112C288.9 75.604 259.395 46.0996 223 46.0996C186.604 46.0996 157.1 75.604 157.1 112C157.1 148.395 186.604 177.9 223 177.9Z" stroke="#F1F1F1" stroke-width="2"/>
            <path d="M222.257 188.307C264.811 188.307 299.307 153.811 299.307 111.257C299.307 68.7035 264.811 34.207 222.257 34.207C179.703 34.207 145.207 68.7035 145.207 111.257C145.207 153.811 179.703 188.307 222.257 188.307Z" stroke="#F1F1F1" stroke-width="2"/>
            <path d="M223.001 200.201C271.712 200.201 311.201 160.712 311.201 112.001C311.201 63.2893 271.712 23.8008 223.001 23.8008C174.289 23.8008 134.801 63.2893 134.801 112.001C134.801 160.712 174.289 200.201 223.001 200.201Z" stroke="#F1F1F1" stroke-width="2"/>
            <path d="M222.256 210.606C277.126 210.606 321.606 166.126 321.606 111.256C321.606 56.3868 277.126 11.9062 222.256 11.9062C167.387 11.9062 122.906 56.3868 122.906 111.256C122.906 166.126 167.387 210.606 222.256 210.606Z" stroke="#F1F1F1" stroke-width="2"/>
            <path d="M223 222.5C284.027 222.5 333.5 173.027 333.5 112C333.5 50.9725 284.027 1.5 223 1.5C161.973 1.5 112.5 50.9725 112.5 112C112.5 173.027 161.973 222.5 223 222.5Z" stroke="#F1F1F1" stroke-width="2"/>
            <path d="M222.257 232.905C289.443 232.905 343.907 178.441 343.907 111.255C343.907 44.07 289.443 -10.3945 222.257 -10.3945C155.072 -10.3945 100.607 44.07 100.607 111.255C100.607 178.441 155.072 232.905 222.257 232.905Z" stroke="#F1F1F1" stroke-width="2"/>
            <path d="M222.999 244.799C296.343 244.799 355.799 185.343 355.799 111.999C355.799 38.6558 296.343 -20.8008 222.999 -20.8008C149.656 -20.8008 90.1992 38.6558 90.1992 111.999C90.1992 185.343 149.656 244.799 222.999 244.799Z" stroke="#F1F1F1" stroke-width="2"/>
            <path d="M222.257 255.207C301.758 255.207 366.207 190.758 366.207 111.257C366.207 31.7553 301.758 -32.6934 222.257 -32.6934C142.755 -32.6934 78.3066 31.7553 78.3066 111.257C78.3066 190.758 142.755 255.207 222.257 255.207Z" stroke="#F1F1F1" stroke-width="2"/>
            <path d="M223 267.1C308.66 267.1 378.1 197.66 378.1 112C378.1 26.341 308.66 -43.0996 223 -43.0996C137.341 -43.0996 67.9004 26.341 67.9004 112C67.9004 197.66 137.341 267.1 223 267.1Z" stroke="#F1F1F1" stroke-width="2"/>
            <path d="M222.256 277.508C314.073 277.508 388.506 203.075 388.506 111.258C388.506 19.4405 314.073 -54.9922 222.256 -54.9922C130.439 -54.9922 56.0059 19.4405 56.0059 111.258C56.0059 203.075 130.439 277.508 222.256 277.508Z" stroke="#F1F1F1" stroke-width="2"/>
            <path d="M223 289.4C320.975 289.4 400.4 209.975 400.4 112C400.4 14.0243 320.975 -65.4004 223 -65.4004C125.024 -65.4004 45.5996 14.0243 45.5996 112C45.5996 209.975 125.024 289.4 223 289.4Z" stroke="#F1F1F1" stroke-width="2"/>
            <path d="M222.257 299.807C326.39 299.807 410.807 215.39 410.807 111.257C410.807 7.12374 326.39 -77.293 222.257 -77.293C118.124 -77.293 33.707 7.12374 33.707 111.257C33.707 215.39 118.124 299.807 222.257 299.807Z" stroke="#F1F1F1" stroke-width="2"/>
            <path d="M223.001 311.701C333.292 311.701 422.701 222.292 422.701 112.001C422.701 1.70951 333.292 -87.6992 223.001 -87.6992C112.71 -87.6992 23.3008 1.70951 23.3008 112.001C23.3008 222.292 112.71 311.701 223.001 311.701Z" stroke="#F1F1F1" stroke-width="2"/>
            <path d="M222.256 322.106C338.705 322.106 433.106 227.706 433.106 111.256C433.106 -5.19299 338.705 -99.5938 222.256 -99.5938C105.807 -99.5938 11.4062 -5.19299 11.4062 111.256C11.4062 227.706 105.807 322.106 222.256 322.106Z" stroke="#F1F1F1" stroke-width="2"/>
            <path d="M223 334C345.607 334 445 234.607 445 112C445 -10.6072 345.607 -110 223 -110C100.393 -110 1 -10.6072 1 112C1 234.607 100.393 334 223 334Z" stroke="#F1F1F1" stroke-width="2"/>
        </g>
    </g>
    <defs>
        <clipPath id="clip0_2489_7320">
            <rect width="446" height="335" fill="white"/>
        </clipPath>
    </defs>
</svg>
