<svg width="446" height="335" viewBox="0 0 446 335" fill="none" xmlns="http://www.w3.org/2000/svg">
<g clip-path="url(#clip0_2271_20484)">
<circle cx="222.999" cy="112" r="21.3" stroke="#F0F0F0" stroke-width="2"/>
<circle cx="222.257" cy="111.256" r="10.15" stroke="#F0F0F0" stroke-width="2"/>
<circle cx="222.257" cy="111.257" r="32.45" stroke="#F0F0F0" stroke-width="2"/>
<circle cx="223" cy="112" r="43.6" stroke="#F0F0F0" stroke-width="2"/>
<circle cx="222.256" cy="111.257" r="54.75" stroke="#F0F0F0" stroke-width="2"/>
<circle cx="223" cy="112" r="65.9" stroke="#F0F0F0" stroke-width="2"/>
<circle cx="222.257" cy="111.257" r="77.05" stroke="#F0F0F0" stroke-width="2"/>
<circle cx="223.001" cy="112" r="88.2" stroke="#F0F0F0" stroke-width="2"/>
<circle cx="222.256" cy="111.256" r="99.35" stroke="#F0F0F0" stroke-width="2"/>
<circle cx="223" cy="112" r="110.5" stroke="#F0F0F0" stroke-width="2"/>
<circle cx="222.257" cy="111.256" r="121.65" stroke="#F0F0F0" stroke-width="2"/>
<circle cx="222.999" cy="112" r="132.8" stroke="#F0F0F0" stroke-width="2"/>
<circle cx="222.257" cy="111.257" r="143.95" stroke="#F0F0F0" stroke-width="2"/>
<circle cx="223" cy="112" r="155.1" stroke="#F0F0F0" stroke-width="2"/>
<circle cx="222.256" cy="111.257" r="166.25" stroke="#F0F0F0" stroke-width="2"/>
<circle cx="223" cy="112" r="177.4" stroke="#F0F0F0" stroke-width="2"/>
<circle cx="222.257" cy="111.257" r="188.55" stroke="#F0F0F0" stroke-width="2"/>
<circle cx="223.001" cy="112" r="199.7" stroke="#F0F0F0" stroke-width="2"/>
<circle cx="222.256" cy="111.256" r="210.85" stroke="#F0F0F0" stroke-width="2"/>
<circle cx="223" cy="112" r="222" stroke="#F0F0F0" stroke-width="2"/>
</g>
<defs>
<clipPath id="clip0_2271_20484">
<rect width="446" height="335" fill="white"/>
</clipPath>
</defs>
</svg>
