<svg width="80" height="80" viewBox="0 0 80 80" fill="none" xmlns="http://www.w3.org/2000/svg">
    <g clip-path="url(#clip0_2138_13175)">
        <path d="M68.1227 44.3196C65.3957 44.3347 63.0344 44.9842 61.054 45.9508C60.3227 44.5159 59.5914 43.2623 59.4696 42.3258C59.3325 41.2383 59.1649 40.5737 59.3325 39.2748C59.5 37.9758 60.2618 36.1331 60.2618 35.9821C60.2465 35.8461 60.0942 35.1816 58.525 35.1665C56.9559 35.1514 55.6 35.4685 55.4477 35.8764C55.2954 36.2842 54.9907 37.2206 54.7926 38.1873C54.5184 39.6071 51.6543 44.6368 50.0243 47.28C49.4911 46.2529 49.034 45.3467 48.9426 44.6217C48.8055 43.5342 48.6379 42.8696 48.8055 41.5706C48.9731 40.2717 49.7348 38.429 49.7348 38.2779C49.7196 38.142 49.5672 37.4774 47.9981 37.4623C46.4289 37.4472 45.0731 37.7644 44.9207 38.1722C44.7684 38.58 44.6008 39.5467 44.2657 40.4831C43.9457 41.4196 40.1372 49.8175 39.1469 52.0076C38.6442 53.1253 38.2024 54.0165 37.8825 54.6206C37.5625 55.2248 37.8672 54.6659 37.8368 54.7264C37.5625 55.2399 37.4102 55.5269 37.4102 55.5269V55.542C37.1969 55.9196 36.9684 56.2821 36.8618 56.2821C36.7856 56.2821 36.6332 55.2701 36.8922 53.8805C37.4559 50.9654 38.827 46.4191 38.8118 46.2529C38.8118 46.1774 39.0707 45.3769 37.9282 44.9691C36.8161 44.5612 36.42 45.2409 36.3286 45.2409C36.2372 45.2409 36.161 45.4826 36.161 45.4826C36.161 45.4826 37.395 40.3623 33.7997 40.3623C31.545 40.3623 28.4372 42.7941 26.8985 45.0144C25.9235 45.543 23.8516 46.6607 21.6579 47.854C20.82 48.3071 19.9516 48.7904 19.1289 49.2284L18.9614 49.0472C14.6043 44.4404 6.54536 41.1779 6.88051 34.9852C7.00239 32.7347 7.79457 26.7987 22.3586 19.6092C34.2872 13.7185 43.8391 15.3347 45.4997 18.9295C47.861 24.0649 40.3961 33.6107 27.9954 34.9852C23.2727 35.5139 20.7895 33.7014 20.1649 33.0217C19.5098 32.3118 19.4184 32.2816 19.1747 32.4175C18.7786 32.629 19.0223 33.2633 19.1747 33.6409C19.5403 34.5925 21.0637 36.2842 23.6536 37.13C25.9235 37.8701 31.4688 38.2779 38.1719 35.7102C45.6825 32.8253 51.5477 24.8201 49.8262 18.129C48.0743 11.317 36.6789 9.08156 25.9082 12.8727C19.4946 15.1383 12.5477 18.6727 7.55082 23.3097C1.60942 28.8076 0.664886 33.6107 1.06098 35.6045C2.44731 42.7185 12.3344 47.3555 16.2954 50.7842C16.0973 50.8899 15.9145 50.9956 15.7469 51.0863C13.7664 52.0529 6.22543 55.9649 4.33637 60.1034C2.20356 64.7857 4.67153 68.154 6.31684 68.6071C11.4051 70.0118 16.6153 67.4894 19.4336 63.3357C22.2368 59.1821 21.9016 53.7899 20.6067 51.3279L20.561 51.2373L22.1149 50.331C23.1204 49.742 24.1106 49.1982 24.9789 48.73C24.4914 50.0441 24.1411 51.5998 23.9582 53.8654C23.745 56.5238 24.8418 59.9675 26.2891 61.3269C26.9289 61.9159 27.6907 61.931 28.1629 61.931C29.8387 61.931 30.6004 60.5566 31.4383 58.9102C32.4743 56.9014 33.3883 54.5753 33.3883 54.5753C33.3883 54.5753 32.2457 60.8738 35.3688 60.8738C36.5114 60.8738 37.6539 59.4086 38.1719 58.6534V58.6685C38.1719 58.6685 38.2024 58.6232 38.2633 58.5175C38.3852 58.3363 38.4461 58.2305 38.4461 58.2305V58.2003C38.9032 57.4149 39.9239 55.6175 41.4473 52.642C43.4125 48.8055 45.3016 44.0024 45.3016 44.0024C45.3016 44.0024 45.4844 45.1805 46.0481 47.1139C46.3832 48.2618 47.1145 49.5154 47.6782 50.7389C47.2211 51.3732 46.9469 51.7357 46.9469 51.7357L46.9622 51.7508C46.5965 52.2342 46.1852 52.7477 45.7586 53.2612C44.2047 55.104 42.3461 57.2034 42.1024 57.8076C41.8129 58.5175 41.8739 59.0461 42.4375 59.4691C42.8489 59.7711 43.5801 59.8316 44.3571 59.7711C45.7586 59.6805 46.7336 59.3331 47.2211 59.1217C47.9829 58.8498 48.8512 58.442 49.6891 57.8378C51.2125 56.7201 52.1418 55.1342 52.0504 53.0196C52.0047 51.8566 51.6239 50.7086 51.1516 49.6211C51.2887 49.4248 51.4258 49.2284 51.5629 49.017C53.97 45.5279 55.8286 41.6915 55.8286 41.6915C55.8286 41.6915 56.0114 42.8696 56.575 44.8029C56.8645 45.7847 57.4434 46.8571 57.9614 47.9144C55.7067 49.742 54.2899 51.8566 53.8024 53.2461C52.9036 55.8139 53.6043 56.9769 54.9297 57.2488C55.5239 57.3696 56.377 57.0977 57.0168 56.8258C57.809 56.5691 58.7688 56.131 59.6524 55.4816C61.1758 54.3639 62.6383 52.8081 62.5622 50.7086C62.5164 49.742 62.2575 48.7904 61.9071 47.8842C63.8266 47.0987 66.3098 46.6456 69.4633 47.0232C76.2426 47.8086 77.5832 52.0076 77.3243 53.7597C77.0653 55.5118 75.6485 56.4784 75.1762 56.7805C74.7039 57.0675 74.5516 57.1732 74.5973 57.3847C74.6582 57.7019 74.8715 57.6868 75.2829 57.6264C75.8465 57.5357 78.8477 56.1915 78.9696 52.9592C79.1524 48.8055 75.1762 44.2743 68.1227 44.3196ZM15.8383 61.7951C13.5989 64.2269 10.4454 65.1482 9.10473 64.3628C7.65746 63.5321 8.22114 59.9524 10.9786 57.3696C12.6543 55.7988 14.8329 54.3488 16.2649 53.4576C16.5848 53.2613 17.0723 52.9743 17.6512 52.6269C17.7426 52.5665 17.8036 52.5363 17.8036 52.5363C17.9102 52.4758 18.0321 52.4003 18.1539 52.3248C19.1747 56.0102 18.1997 59.2425 15.8383 61.7951ZM32.2153 50.754C31.4383 52.642 29.793 57.4904 28.8028 57.2185C27.9497 56.992 27.4317 53.3217 28.6352 49.6967C29.2446 47.8691 30.5395 45.6941 31.3012 44.8482C32.5352 43.4889 33.8758 43.0357 34.211 43.5946C34.6071 44.3196 32.7028 49.5758 32.2153 50.754ZM45.7282 57.1581C45.393 57.3243 45.0883 57.4451 44.9512 57.3545C44.8446 57.2941 45.0883 57.0675 45.0883 57.0675C45.0883 57.0675 46.7793 55.2701 47.4497 54.4394C47.8305 53.956 48.2875 53.3972 48.775 52.7628V52.9441C48.775 55.1191 46.6727 56.5691 45.7282 57.1581ZM56.1485 54.8019C55.9047 54.6206 55.9352 54.0618 56.7579 52.3097C57.0778 51.6149 57.809 50.4519 59.0735 49.3493C59.2258 49.8024 59.3172 50.2404 59.302 50.6482C59.2868 53.367 57.3368 54.379 56.1485 54.8019Z" fill="#CF649A"/>
    </g>
    <defs>
        <clipPath id="clip0_2138_13175">
            <rect width="78" height="58" fill="white" transform="translate(1 11)"/>
        </clipPath>
    </defs>
</svg>