<svg width="80" height="80" viewBox="0 0 80 80" fill="none" xmlns="http://www.w3.org/2000/svg">
<path d="M15.4752 26.5498C14.5085 26.5498 13.6418 26.3914 12.8752 26.0748C12.1251 25.7582 11.4834 25.3082 10.9501 24.7248C10.4334 24.1414 10.0334 23.4332 9.7501 22.5998C9.48344 21.7664 9.3501 20.8332 9.3501 19.7998C9.3501 18.7664 9.48344 17.8332 9.7501 16.9998C10.0334 16.1664 10.4334 15.4582 10.9501 14.8748C11.4834 14.2914 12.1251 13.8414 12.8752 13.5248C13.6418 13.2082 14.5002 13.0498 15.4502 13.0498C16.7835 13.0498 17.8502 13.3332 18.6502 13.8998C19.4668 14.4664 20.0752 15.1998 20.4752 16.0998L18.3502 17.2498C18.1168 16.6498 17.7585 16.1748 17.2752 15.8248C16.8085 15.4748 16.2002 15.2998 15.4502 15.2998C14.4168 15.2998 13.6168 15.6164 13.0502 16.2498C12.4834 16.8664 12.2001 17.6914 12.2001 18.7248V20.8748C12.2001 21.8914 12.4834 22.7164 13.0502 23.3498C13.6168 23.9832 14.4335 24.2998 15.5002 24.2998C16.3002 24.2998 16.9502 24.1164 17.4502 23.7498C17.9668 23.3832 18.3752 22.8832 18.6752 22.2498L20.6752 23.4748C20.2585 24.3748 19.6252 25.1164 18.7752 25.6998C17.9252 26.2664 16.8252 26.5498 15.4752 26.5498ZM29.9904 26.5498C29.0404 26.5498 28.182 26.3914 27.4154 26.0748C26.6654 25.7582 26.0238 25.3082 25.4904 24.7248C24.9738 24.1414 24.5738 23.4332 24.2904 22.5998C24.007 21.7664 23.8654 20.8332 23.8654 19.7998C23.8654 18.7664 24.007 17.8332 24.2904 16.9998C24.5738 16.1664 24.9738 15.4582 25.4904 14.8748C26.0238 14.2914 26.6654 13.8414 27.4154 13.5248C28.182 13.2082 29.0404 13.0498 29.9904 13.0498C30.9404 13.0498 31.7904 13.2082 32.5404 13.5248C33.307 13.8414 33.9488 14.2914 34.4654 14.8748C34.9988 15.4582 35.407 16.1664 35.6904 16.9998C35.9738 17.8332 36.1154 18.7664 36.1154 19.7998C36.1154 20.8332 35.9738 21.7664 35.6904 22.5998C35.407 23.4332 34.9988 24.1414 34.4654 24.7248C33.9488 25.3082 33.307 25.7582 32.5404 26.0748C31.7904 26.3914 30.9404 26.5498 29.9904 26.5498ZM29.9904 24.3998C30.9904 24.3998 31.782 24.0998 32.3654 23.4998C32.9654 22.8832 33.2654 21.9748 33.2654 20.7748V18.8248C33.2654 17.6248 32.9654 16.7248 32.3654 16.1248C31.782 15.5082 30.9904 15.1998 29.9904 15.1998C28.9904 15.1998 28.1904 15.5082 27.5904 16.1248C27.007 16.7248 26.7154 17.6248 26.7154 18.8248V20.7748C26.7154 21.9748 27.007 22.8832 27.5904 23.4998C28.1904 24.0998 28.9904 24.3998 29.9904 24.3998ZM39.5807 26.2498V13.3498H42.3057V15.5498H42.4307C42.5639 15.2164 42.7307 14.8998 42.9307 14.5998C43.1473 14.2832 43.4057 14.0164 43.7057 13.7998C44.0057 13.5664 44.3557 13.3832 44.7557 13.2498C45.1557 13.1164 45.6223 13.0498 46.1557 13.0498C47.4557 13.0498 48.5057 13.4748 49.3057 14.3248C50.1057 15.1748 50.5057 16.3832 50.5057 17.9498V26.2498H47.7807V18.3498C47.7807 16.2998 46.8889 15.2748 45.1057 15.2748C44.7557 15.2748 44.4139 15.3248 44.0807 15.4248C43.7473 15.5082 43.4473 15.6414 43.1807 15.8248C42.9139 16.0082 42.6973 16.2414 42.5307 16.5248C42.3807 16.8082 42.3057 17.1332 42.3057 17.4998V26.2498H39.5807ZM15.0252 47.7998C13.6252 47.7998 12.4168 47.5748 11.4001 47.1248C10.4001 46.6748 9.59176 46.0748 8.9751 45.3248L10.6501 43.8248C11.2168 44.4414 11.8501 44.9164 12.5502 45.2498C13.2668 45.5664 14.1085 45.7248 15.0752 45.7248C15.9585 45.7248 16.6668 45.5748 17.2002 45.2748C17.7502 44.9748 18.0252 44.5082 18.0252 43.8748C18.0252 43.6082 17.9752 43.3832 17.8752 43.1998C17.7752 43.0164 17.6335 42.8664 17.4502 42.7498C17.2668 42.6332 17.0502 42.5414 16.8002 42.4748C16.5668 42.4082 16.3168 42.3582 16.0502 42.3248L14.0002 41.9998C13.5002 41.9332 12.9918 41.8248 12.4751 41.6748C11.9584 41.5248 11.4918 41.3164 11.0751 41.0498C10.6751 40.7664 10.3418 40.4082 10.0751 39.9748C9.8251 39.5414 9.7001 38.9914 9.7001 38.3248C9.7001 37.0082 10.2001 36.0082 11.2001 35.3248C12.2168 34.6414 13.5502 34.2998 15.2002 34.2998C16.4002 34.2998 17.4335 34.4832 18.3002 34.8498C19.1835 35.1998 19.9168 35.6914 20.5002 36.3248L18.9752 37.9248C18.6418 37.5414 18.1668 37.1914 17.5502 36.8748C16.9335 36.5414 16.1168 36.3748 15.1002 36.3748C13.2835 36.3748 12.3751 36.9498 12.3751 38.0998C12.3751 38.6498 12.5668 39.0332 12.9502 39.2498C13.3502 39.4498 13.8168 39.5832 14.3502 39.6498L16.4002 39.9748C16.9168 40.0582 17.4252 40.1664 17.9252 40.2998C18.4418 40.4332 18.9002 40.6414 19.3002 40.9248C19.7168 41.1914 20.0502 41.5414 20.3002 41.9748C20.5668 42.4082 20.7002 42.9582 20.7002 43.6248C20.7002 44.9248 20.1918 45.9498 19.1752 46.6998C18.1752 47.4332 16.7918 47.7998 15.0252 47.7998ZM29.9904 47.7998C29.0404 47.7998 28.182 47.6414 27.4154 47.3248C26.6654 47.0082 26.0238 46.5582 25.4904 45.9748C24.9738 45.3914 24.5738 44.6832 24.2904 43.8498C24.007 43.0164 23.8654 42.0832 23.8654 41.0498C23.8654 40.0164 24.007 39.0832 24.2904 38.2498C24.5738 37.4164 24.9738 36.7082 25.4904 36.1248C26.0238 35.5414 26.6654 35.0914 27.4154 34.7748C28.182 34.4582 29.0404 34.2998 29.9904 34.2998C30.9404 34.2998 31.7904 34.4582 32.5404 34.7748C33.307 35.0914 33.9488 35.5414 34.4654 36.1248C34.9988 36.7082 35.407 37.4164 35.6904 38.2498C35.9738 39.0832 36.1154 40.0164 36.1154 41.0498C36.1154 42.0832 35.9738 43.0164 35.6904 43.8498C35.407 44.6832 34.9988 45.3914 34.4654 45.9748C33.9488 46.5582 33.307 47.0082 32.5404 47.3248C31.7904 47.6414 30.9404 47.7998 29.9904 47.7998ZM29.9904 45.6498C30.9904 45.6498 31.782 45.3498 32.3654 44.7498C32.9654 44.1332 33.2654 43.2248 33.2654 42.0248V40.0748C33.2654 38.8748 32.9654 37.9748 32.3654 37.3748C31.782 36.7582 30.9904 36.4498 29.9904 36.4498C28.9904 36.4498 28.1904 36.7582 27.5904 37.3748C27.007 37.9748 26.7154 38.8748 26.7154 40.0748V42.0248C26.7154 43.2248 27.007 44.1332 27.5904 44.7498C28.1904 45.3498 28.9904 45.6498 29.9904 45.6498ZM39.3557 45.2998H43.6307V31.1998H39.3557V28.9998H46.3557V45.2998H50.6307V47.4998H39.3557V45.2998ZM60.2459 47.7998C59.2625 47.7998 58.3792 47.6414 57.5959 47.3248C56.8125 47.0082 56.1542 46.5582 55.6209 45.9748C55.0875 45.3914 54.6792 44.6914 54.3959 43.8748C54.1125 43.0414 53.9709 42.1082 53.9709 41.0748C53.9709 40.0414 54.1125 39.1082 54.3959 38.2748C54.6959 37.4414 55.1042 36.7332 55.6209 36.1498C56.1542 35.5498 56.7959 35.0914 57.5459 34.7748C58.2959 34.4582 59.1292 34.2998 60.0459 34.2998C60.9459 34.2998 61.7625 34.4582 62.4959 34.7748C63.2292 35.0748 63.8542 35.5082 64.3709 36.0748C64.8875 36.6414 65.2792 37.3164 65.5459 38.0998C65.8292 38.8832 65.9709 39.7498 65.9709 40.6998V41.7248H56.7209V42.1498C56.7209 43.1664 57.0375 43.9998 57.6709 44.6498C58.3042 45.2832 59.1792 45.5998 60.2959 45.5998C61.1292 45.5998 61.8375 45.4248 62.4209 45.0748C63.0209 44.7082 63.5042 44.2248 63.8709 43.6248L65.5709 45.1248C65.1375 45.8748 64.4709 46.5082 63.5709 47.0248C62.6875 47.5414 61.5792 47.7998 60.2459 47.7998ZM60.0459 36.3748C59.5625 36.3748 59.1125 36.4582 58.6959 36.6248C58.2959 36.7914 57.9459 37.0332 57.6459 37.3498C57.3625 37.6498 57.1375 38.0082 56.9709 38.4248C56.8042 38.8414 56.7209 39.2998 56.7209 39.7998V39.9748H63.1959V39.7248C63.1959 38.7082 62.9042 37.8998 62.3209 37.2998C61.7542 36.6832 60.9959 36.3748 60.0459 36.3748ZM9.3751 66.5498H13.6502V52.4498H9.3751V50.2498H16.3752V66.5498H20.6502V68.7498H9.3751V66.5498ZM29.9904 69.0498C29.0404 69.0498 28.182 68.8914 27.4154 68.5748C26.6654 68.2582 26.0238 67.8082 25.4904 67.2248C24.9738 66.6414 24.5738 65.9332 24.2904 65.0998C24.007 64.2664 23.8654 63.3332 23.8654 62.2998C23.8654 61.2664 24.007 60.3332 24.2904 59.4998C24.5738 58.6664 24.9738 57.9582 25.4904 57.3748C26.0238 56.7914 26.6654 56.3414 27.4154 56.0248C28.182 55.7082 29.0404 55.5498 29.9904 55.5498C30.9404 55.5498 31.7904 55.7082 32.5404 56.0248C33.307 56.3414 33.9488 56.7914 34.4654 57.3748C34.9988 57.9582 35.407 58.6664 35.6904 59.4998C35.9738 60.3332 36.1154 61.2664 36.1154 62.2998C36.1154 63.3332 35.9738 64.2664 35.6904 65.0998C35.407 65.9332 34.9988 66.6414 34.4654 67.2248C33.9488 67.8082 33.307 68.2582 32.5404 68.5748C31.7904 68.8914 30.9404 69.0498 29.9904 69.0498ZM29.9904 66.8998C30.9904 66.8998 31.782 66.5998 32.3654 65.9998C32.9654 65.3832 33.2654 64.4748 33.2654 63.2748V61.3248C33.2654 60.1248 32.9654 59.2248 32.3654 58.6248C31.782 58.0082 30.9904 57.6998 29.9904 57.6998C28.9904 57.6998 28.1904 58.0082 27.5904 58.6248C27.007 59.2248 26.7154 60.1248 26.7154 61.3248V63.2748C26.7154 64.4748 27.007 65.3832 27.5904 65.9998C28.1904 66.5998 28.9904 66.8998 29.9904 66.8998ZM51.7307 70.1498C51.7307 71.4832 51.1723 72.4664 50.0557 73.0998C48.9389 73.7332 47.2389 74.0498 44.9557 74.0498C43.8389 74.0498 42.8973 73.9748 42.1307 73.8248C41.3807 73.6914 40.7639 73.4914 40.2807 73.2248C39.8139 72.9582 39.4723 72.6332 39.2557 72.2498C39.0557 71.8664 38.9557 71.4332 38.9557 70.9498C38.9557 70.2498 39.1473 69.6998 39.5307 69.2998C39.9307 68.9164 40.4889 68.6332 41.2057 68.4498V68.1998C40.7723 68.0332 40.4223 67.7998 40.1557 67.4998C39.9057 67.1998 39.7807 66.8082 39.7807 66.3248C39.7807 65.6914 39.9973 65.2164 40.4307 64.8998C40.8639 64.5664 41.4223 64.3164 42.1057 64.1498V64.0248C41.3223 63.6582 40.7139 63.1414 40.2807 62.4748C39.8473 61.8082 39.6307 61.0082 39.6307 60.0748C39.6307 59.3914 39.7557 58.7748 40.0057 58.2248C40.2557 57.6582 40.6057 57.1832 41.0557 56.7998C41.5223 56.3998 42.0723 56.0914 42.7057 55.8748C43.3557 55.6582 44.0807 55.5498 44.8807 55.5498C45.7807 55.5498 46.5889 55.6914 47.3057 55.9748V55.5498C47.3057 55.0498 47.4473 54.6332 47.7307 54.2998C48.0139 53.9664 48.4473 53.7998 49.0307 53.7998H51.3807V55.9498H48.3807V56.5498C48.9473 56.9332 49.3807 57.4248 49.6807 58.0248C49.9807 58.6082 50.1307 59.2914 50.1307 60.0748C50.1307 60.7582 50.0057 61.3832 49.7557 61.9498C49.5057 62.4998 49.1473 62.9748 48.6807 63.3748C48.2307 63.7582 47.6807 64.0582 47.0307 64.2748C46.3973 64.4748 45.6807 64.5748 44.8807 64.5748C44.3139 64.5748 43.7807 64.5248 43.2807 64.4248C42.9807 64.5082 42.6807 64.6498 42.3807 64.8498C42.0807 65.0498 41.9307 65.3248 41.9307 65.6748C41.9307 66.0748 42.1223 66.3248 42.5057 66.4248C42.8889 66.5248 43.3639 66.5748 43.9307 66.5748H46.8307C48.5639 66.5748 49.8139 66.9082 50.5807 67.5748C51.3473 68.2248 51.7307 69.0832 51.7307 70.1498ZM49.1807 70.3248C49.1807 69.8914 49.0057 69.5414 48.6557 69.2748C48.3057 69.0248 47.6723 68.8998 46.7557 68.8998H42.2807C41.6473 69.1998 41.3307 69.6832 41.3307 70.3498C41.3307 70.8332 41.5307 71.2498 41.9307 71.5998C42.3473 71.9498 43.0307 72.1248 43.9807 72.1248H46.0057C47.0389 72.1248 47.8223 71.9664 48.3557 71.6498C48.9057 71.3498 49.1807 70.9082 49.1807 70.3248ZM44.8807 62.6998C45.7639 62.6998 46.4139 62.4914 46.8307 62.0748C47.2473 61.6582 47.4557 61.0998 47.4557 60.3998V59.7248C47.4557 59.0248 47.2473 58.4664 46.8307 58.0498C46.4139 57.6332 45.7639 57.4248 44.8807 57.4248C43.9973 57.4248 43.3473 57.6332 42.9307 58.0498C42.5139 58.4664 42.3057 59.0248 42.3057 59.7248V60.3998C42.3057 61.0998 42.5139 61.6582 42.9307 62.0748C43.3473 62.4914 43.9973 62.6998 44.8807 62.6998Z" fill="#149ECA"/>
<path d="M74.9611 47.7494C74.1611 47.7494 73.5944 47.5828 73.2611 47.2494C72.9444 46.916 72.7861 46.5078 72.7861 46.0244V45.3744C72.7861 44.891 72.9444 44.4828 73.2611 44.1494C73.5944 43.816 74.1611 43.6494 74.9611 43.6494C75.7611 43.6494 76.3194 43.816 76.6361 44.1494C76.9694 44.4828 77.1361 44.891 77.1361 45.3744V46.0244C77.1361 46.5078 76.9694 46.916 76.6361 47.2494C76.3194 47.5828 75.7611 47.7494 74.9611 47.7494Z" fill="#FF4242"/>
</svg>
