<svg width="80" height="80" viewBox="0 0 80 80" fill="none" xmlns="http://www.w3.org/2000/svg">
    <path d="M65 5H15C9.47715 5 5 9.47715 5 15V65C5 70.5229 9.47715 75 15 75H65C70.5229 75 75 70.5229 75 65V15C75 9.47715 70.5229 5 65 5Z" fill="#F7DF1E"/>
    <path d="M35.7586 39.8189H41.2302V58.0746C41.2302 59.7621 40.851 61.228 40.0924 62.4723C39.3424 63.7166 38.2984 64.6754 36.9603 65.3487C35.6223 66.022 34.0669 66.3587 32.2941 66.3587C30.7174 66.3587 29.2856 66.0817 27.9987 65.5277C26.7203 64.9652 25.7061 64.1129 24.9561 62.9709C24.2061 61.8203 23.8353 60.3757 23.8439 58.6371H29.3538C29.3708 59.3274 29.5115 59.9197 29.7757 60.4141C30.0484 60.8998 30.4191 61.2748 30.8879 61.5391C31.3652 61.7947 31.9277 61.9226 32.5754 61.9226C33.2572 61.9226 33.8325 61.7777 34.3012 61.4879C34.7785 61.1896 35.1407 60.755 35.3879 60.1839C35.635 59.6129 35.7586 58.9098 35.7586 58.0746V39.8189ZM60.01 47.3487C59.9078 46.3175 59.4689 45.5163 58.6933 44.9453C57.9177 44.3743 56.8652 44.0888 55.5356 44.0888C54.6322 44.0888 53.8694 44.2166 53.2473 44.4723C52.6251 44.7195 52.1478 45.0646 51.8154 45.5078C51.4916 45.951 51.3296 46.4538 51.3296 47.0163C51.3126 47.4851 51.4106 47.8942 51.6237 48.2436C51.8453 48.593 52.1478 48.8956 52.5313 49.1513C52.9149 49.3984 53.3581 49.6158 53.8609 49.8033C54.3637 49.9822 54.9007 50.1356 55.4717 50.2635L57.824 50.826C58.966 51.0817 60.0143 51.4226 60.9689 51.8487C61.9234 52.2748 62.7501 52.799 63.449 53.4212C64.1478 54.0433 64.689 54.7763 65.0725 55.62C65.4646 56.4638 65.6649 57.4311 65.6734 58.522C65.6649 60.1243 65.2558 61.5135 64.4461 62.6896C63.645 63.8572 62.4859 64.7649 60.9689 65.4126C59.4603 66.0518 57.6407 66.3714 55.51 66.3714C53.3964 66.3714 51.5555 66.0476 49.9873 65.3998C48.4277 64.7521 47.2089 63.7933 46.3311 62.5234C45.4617 61.245 45.0058 59.6641 44.9632 57.7805H50.3197C50.3794 58.6584 50.6308 59.3913 51.074 59.9794C51.5257 60.5589 52.1265 60.9979 52.8765 61.2962C53.635 61.5859 54.4916 61.7308 55.4461 61.7308C56.3836 61.7308 57.1975 61.5944 57.8879 61.3217C58.5867 61.049 59.1279 60.6697 59.5115 60.1839C59.895 59.6981 60.0867 59.1399 60.0867 58.5092C60.0867 57.9212 59.912 57.4268 59.5626 57.0263C59.2217 56.6257 58.7189 56.2848 58.0541 56.0035C57.3978 55.7223 56.5924 55.4666 55.6379 55.2365L52.787 54.5206C50.5796 53.9837 48.8367 53.1442 47.5583 52.0021C46.2799 50.8601 45.645 49.3217 45.6535 47.3871C45.645 45.8018 46.0669 44.4169 46.9191 43.2322C47.7799 42.0476 48.9603 41.1229 50.4603 40.4581C51.9603 39.7933 53.6649 39.4609 55.574 39.4609C57.5171 39.4609 59.2132 39.7933 60.662 40.4581C62.1194 41.1229 63.2529 42.0476 64.0626 43.2322C64.8723 44.4169 65.2899 45.7891 65.3154 47.3487H60.01Z" fill="black"/>
</svg>