<svg width="80" height="80" viewBox="0 0 80 80" fill="none" xmlns="http://www.w3.org/2000/svg">
    <rect y="10" width="70" height="70" rx="10" fill="#F7DF1E"/>
    <path d="M30.7585 44.8182H36.2301V63.0739C36.2301 64.7614 35.8509 66.2273 35.0923 67.4716C34.3423 68.7159 33.2983 69.6747 31.9602 70.348C30.6222 71.0213 29.0668 71.358 27.294 71.358C25.7173 71.358 24.2855 71.081 22.9986 70.527C21.7202 69.9645 20.706 69.1122 19.956 67.9702C19.206 66.8196 18.8352 65.375 18.8438 63.6364H24.3537C24.3707 64.3267 24.5114 64.919 24.7756 65.4134C25.0483 65.8991 25.419 66.2741 25.8878 66.5384C26.3651 66.794 26.9276 66.9219 27.5753 66.9219C28.2571 66.9219 28.8324 66.777 29.3011 66.4872C29.7784 66.1889 30.1406 65.7543 30.3878 65.1832C30.6349 64.6122 30.7585 63.9091 30.7585 63.0739V44.8182ZM55.0099 52.348C54.9077 51.3168 54.4688 50.5156 53.6932 49.9446C52.9176 49.3736 51.8651 49.0881 50.5355 49.0881C49.6321 49.0881 48.8693 49.2159 48.2472 49.4716C47.625 49.7188 47.1477 50.0639 46.8153 50.5071C46.4915 50.9503 46.3295 51.4531 46.3295 52.0156C46.3125 52.4844 46.4105 52.8935 46.6236 53.2429C46.8452 53.5923 47.1477 53.8949 47.5312 54.1506C47.9148 54.3977 48.358 54.6151 48.8608 54.8026C49.3636 54.9815 49.9006 55.1349 50.4716 55.2628L52.8239 55.8253C53.9659 56.081 55.0142 56.4219 55.9688 56.848C56.9233 57.2741 57.75 57.7983 58.4489 58.4205C59.1477 59.0426 59.6889 59.7756 60.0724 60.6193C60.4645 61.4631 60.6648 62.4304 60.6733 63.5213C60.6648 65.1236 60.2557 66.5128 59.446 67.6889C58.6449 68.8565 57.4858 69.7642 55.9688 70.4119C54.4602 71.0511 52.6406 71.3707 50.5099 71.3707C48.3963 71.3707 46.5554 71.0469 44.9872 70.3991C43.4276 69.7514 42.2088 68.7926 41.331 67.5227C40.4616 66.2443 40.0057 64.6634 39.9631 62.7798H45.3196C45.3793 63.6577 45.6307 64.3906 46.0739 64.9787C46.5256 65.5582 47.1264 65.9972 47.8764 66.2955C48.6349 66.5852 49.4915 66.7301 50.446 66.7301C51.3835 66.7301 52.1974 66.5937 52.8878 66.321C53.5866 66.0483 54.1278 65.669 54.5114 65.1832C54.8949 64.6974 55.0866 64.1392 55.0866 63.5085C55.0866 62.9205 54.9119 62.4261 54.5625 62.0256C54.2216 61.625 53.7188 61.2841 53.054 61.0028C52.3977 60.7216 51.5923 60.4659 50.6378 60.2358L47.7869 59.5199C45.5795 58.983 43.8366 58.1435 42.5582 57.0014C41.2798 55.8594 40.6449 54.321 40.6534 52.3864C40.6449 50.8011 41.0668 49.4162 41.919 48.2315C42.7798 47.0469 43.9602 46.1222 45.4602 45.4574C46.9602 44.7926 48.6648 44.4602 50.5739 44.4602C52.517 44.4602 54.2131 44.7926 55.6619 45.4574C57.1193 46.1222 58.2528 47.0469 59.0625 48.2315C59.8722 49.4162 60.2898 50.7884 60.3153 52.348H55.0099Z" fill="black"/>
</svg>