<svg width="80" height="80" viewBox="0 0 80 80" fill="none" xmlns="http://www.w3.org/2000/svg">
    <ellipse cx="33.125" cy="36.2134" rx="22.5503" ry="22.6909" fill="#002B51"/>
    <ellipse cx="55.7047" cy="33.9121" rx="13.1544" ry="13.2364" fill="#002B51"/>
    <rect y="31.3662" width="80" height="28.6338" rx="14.3169" fill="#002B51"/>
    <path d="M10.0443 44.9528C10.6 44.9528 11.0014 44.7913 11.2483 44.4682C11.4953 44.1451 11.6188 43.7226 11.6188 43.2007V40.3863C11.6188 39.8519 11.6867 39.3798 11.8226 38.9697C11.9584 38.5472 12.1807 38.1931 12.4894 37.9073C12.8105 37.6215 13.2304 37.404 13.749 37.2549C14.28 37.1058 14.9345 37.0312 15.7125 37.0312H16.083V39.2493H15.6199C15.0642 39.2493 14.6875 39.3735 14.4899 39.6221C14.3047 39.8706 14.2121 40.2558 14.2121 40.7777V43.2567C14.2121 43.9028 14.1257 44.4496 13.9528 44.8969C13.7799 45.3442 13.4341 45.7294 12.9155 46.0525C13.4341 46.3756 13.7799 46.7608 13.9528 47.2081C14.1257 47.6555 14.2121 48.2022 14.2121 48.8484V51.3273C14.2121 51.8492 14.3047 52.2344 14.4899 52.483C14.6875 52.7315 15.0642 52.8557 15.6199 52.8557H16.083V55.0738H15.7125C14.9345 55.0738 14.28 54.9992 13.749 54.8501C13.2304 54.701 12.8105 54.4835 12.4894 54.1977C12.1807 53.9119 11.9584 53.5578 11.8226 53.1353C11.6867 52.7253 11.6188 52.2531 11.6188 51.7188V48.9043C11.6188 48.3824 11.4953 47.9599 11.2483 47.6368C11.0014 47.3137 10.6 47.1522 10.0443 47.1522V44.9528Z" fill="white"/>
    <path d="M21.8826 38.5596C23.809 38.5596 25.2847 38.9076 26.3097 39.6034C27.3346 40.2869 27.8471 41.3555 27.8471 42.8093C27.8471 43.7164 27.6372 44.4558 27.2173 45.0274C26.8098 45.5865 26.2171 46.0277 25.4391 46.3507C25.6984 46.6738 25.9701 47.0466 26.2541 47.4691C26.5381 47.8791 26.816 48.314 27.0877 48.7738C27.3717 49.2211 27.6434 49.6933 27.9027 50.1904C28.162 50.675 28.4028 51.1534 28.6251 51.6256H25.3835C25.1489 51.2031 24.9081 50.7744 24.6611 50.3395C24.4265 49.9046 24.1795 49.4821 23.9201 49.072C23.6732 48.662 23.4262 48.2768 23.1792 47.9164C22.9322 47.5436 22.6852 47.2081 22.4383 46.9099H21.012V51.6256H18.1223V38.8951C18.7521 38.7709 19.4004 38.6839 20.0673 38.6342C20.7465 38.5845 21.3516 38.5596 21.8826 38.5596ZM22.0493 41.0386C21.8393 41.0386 21.6479 41.0448 21.475 41.0573C21.3145 41.0697 21.1601 41.0821 21.012 41.0945V44.5987H21.827C22.9137 44.5987 23.6917 44.462 24.1609 44.1886C24.6302 43.9152 24.8648 43.4493 24.8648 42.7907C24.8648 42.157 24.624 41.7096 24.1424 41.4487C23.6732 41.1753 22.9754 41.0386 22.0493 41.0386Z" fill="white"/>
    <path d="M30.8478 51.6256V38.7088H39.5168V41.1505H33.7374V43.6854H38.8685V46.0711H33.7374V49.1839H39.9428V51.6256H30.8478Z" fill="white"/>
    <path d="M45.9527 49.4075C46.3602 49.4075 46.6936 49.3765 46.9529 49.3143C47.2246 49.2398 47.4407 49.1466 47.6013 49.0347C47.7618 48.9105 47.8729 48.7676 47.9347 48.606C47.9964 48.4445 48.0273 48.2643 48.0273 48.0655C48.0273 47.643 47.8297 47.2951 47.4346 47.0217C47.0394 46.7359 46.3602 46.4315 45.397 46.1084C44.9771 45.9593 44.5572 45.7916 44.1374 45.6052C43.7175 45.4064 43.3409 45.1641 43.0074 44.8783C42.674 44.58 42.4023 44.2259 42.1924 43.8158C41.9825 43.3933 41.8775 42.8839 41.8775 42.2874C41.8775 41.691 41.9886 41.1567 42.2109 40.6845C42.4332 40.1999 42.7481 39.7898 43.1556 39.4543C43.5631 39.1188 44.0571 38.8641 44.6375 38.6901C45.2179 38.5037 45.8724 38.4105 46.601 38.4105C47.4654 38.4105 48.2125 38.5037 48.8423 38.6901C49.4721 38.8765 49.9908 39.0815 50.3983 39.3052L49.5648 41.5978C49.2066 41.4114 48.8053 41.2499 48.3607 41.1132C47.9285 40.9641 47.4037 40.8895 46.7862 40.8895C46.0947 40.8895 45.5946 40.9889 45.2858 41.1877C44.9895 41.3741 44.8413 41.6661 44.8413 42.0638C44.8413 42.2999 44.8968 42.4987 45.008 42.6602C45.1191 42.8218 45.2735 42.9709 45.4711 43.1076C45.681 43.2318 45.9156 43.3499 46.175 43.4617C46.4466 43.5611 46.743 43.6667 47.0641 43.7786C47.7309 44.0271 48.3113 44.2756 48.8053 44.5241C49.2993 44.7602 49.7068 45.0398 50.0278 45.3629C50.3613 45.6859 50.6082 46.0649 50.7688 46.4998C50.9293 46.9348 51.0096 47.4629 51.0096 48.0842C51.0096 49.2895 50.5897 50.2276 49.75 50.8986C48.9103 51.5572 47.6445 51.8865 45.9527 51.8865C45.3846 51.8865 44.8721 51.8492 44.4152 51.7747C43.9583 51.7125 43.5508 51.6318 43.1927 51.5324C42.8469 51.433 42.5444 51.3273 42.285 51.2155C42.038 51.1037 41.8281 50.998 41.6552 50.8986L42.4703 48.5874C42.8531 48.7986 43.3223 48.9913 43.878 49.1652C44.4461 49.3268 45.1376 49.4075 45.9527 49.4075Z" fill="white"/>
    <path d="M62.7627 38.7088V41.1877H58.8913V51.6256H56.0017V41.1877H52.1303V38.7088H62.7627Z" fill="white"/>
    <path d="M69.7323 47.1522C69.1766 47.1522 68.7753 47.3137 68.5283 47.6368C68.2813 47.9599 68.1579 48.3824 68.1579 48.9043V51.7188C68.1579 52.2531 68.0899 52.7253 67.9541 53.1353C67.8183 53.5578 67.5898 53.9119 67.2687 54.1977C66.96 54.4835 66.5401 54.701 66.0091 54.8501C65.4905 54.9992 64.8421 55.0738 64.0642 55.0738H63.6937V52.8557H64.1568C64.7125 52.8557 65.083 52.7315 65.2682 52.483C65.4658 52.2344 65.5646 51.8492 65.5646 51.3273V48.8484C65.5646 48.2022 65.651 47.6555 65.8239 47.2081C65.9968 46.7608 66.3426 46.3756 66.8612 46.0525C66.3426 45.7294 65.9968 45.3442 65.8239 44.8969C65.651 44.4496 65.5646 43.9028 65.5646 43.2567V40.7777C65.5646 40.2558 65.4658 39.8706 65.2682 39.6221C65.083 39.3735 64.7125 39.2493 64.1568 39.2493H63.6937V37.0312H64.0642C64.8421 37.0312 65.4905 37.1058 66.0091 37.2549C66.5401 37.404 66.96 37.6215 67.2687 37.9073C67.5898 38.1931 67.8183 38.5472 67.9541 38.9697C68.0899 39.3798 68.1579 39.8519 68.1579 40.3863V43.2007C68.1579 43.7226 68.2813 44.1451 68.5283 44.4682C68.7753 44.7913 69.1766 44.9528 69.7323 44.9528V47.1522Z" fill="white"/>
</svg>