<svg width="80" height="80" viewBox="0 0 80 80" fill="none" xmlns="http://www.w3.org/2000/svg">
    <path d="M68.3829 10.2537C68.1204 9.96387 67.743 9.7998 67.3493 9.7998H12.6508C12.2571 9.7998 11.8797 9.96387 11.6172 10.2537C11.3493 10.5436 11.218 10.9318 11.2563 11.3256L16.1836 66.5217C16.2329 67.1014 16.6375 67.5826 17.1954 67.7467L39.6118 74.1451C39.7321 74.1834 39.8633 74.1998 39.9946 74.1998C40.1258 74.1998 40.2516 74.1834 40.3774 74.1451L62.8102 67.7467C63.368 67.5826 63.7672 67.1014 63.8219 66.5217L68.7438 11.3256C68.7821 10.9318 68.6508 10.5436 68.3829 10.2537ZM56.5868 29.285H30.2493L30.8782 36.4107H55.9524L54.0711 57.4709L39.9891 61.7256L39.8524 61.6818L25.9344 57.4654L25.1743 48.885H31.9938L32.2891 52.2154L40.0711 53.8451L47.711 52.2154L48.5258 43.2029H24.6657L22.8118 22.4764H57.1938L56.5868 29.285Z" fill="#F67600"/>
</svg>