<svg width="80" height="80" viewBox="0 0 80 80" fill="none" xmlns="http://www.w3.org/2000/svg">
<path d="M40 40.625C40 37.9729 41.0536 35.4292 42.9289 33.5539C44.8043 31.6786 47.3479 30.625 50 30.625C52.6521 30.625 55.1957 31.6786 57.0711 33.5539C58.9464 35.4292 60 37.9729 60 40.625C60 43.2771 58.9464 45.8207 57.0711 47.6961C55.1957 49.5714 52.6521 50.625 50 50.625C47.3479 50.625 44.8043 49.5714 42.9289 47.6961C41.0536 45.8207 40 43.2771 40 40.625Z" fill="#1ABCFE"/>
<path d="M20 60.625C20 57.9729 21.0536 55.4293 22.9289 53.5539C24.8042 51.6786 27.3479 50.625 30 50.625H40V60.625C40 63.2771 38.9464 65.8207 37.0711 67.6961C35.1958 69.5714 32.6521 70.625 30 70.625C27.3479 70.625 24.8042 69.5714 22.9289 67.6961C21.0536 65.8207 20 63.2771 20 60.625Z" fill="#0ACF83"/>
<path d="M40 10.625V30.625H50C52.6521 30.625 55.1957 29.5714 57.0711 27.6961C58.9464 25.8208 60 23.2771 60 20.625C60 17.9729 58.9464 15.4292 57.0711 13.5539C55.1957 11.6786 52.6521 10.625 50 10.625H40Z" fill="#FF7262"/>
<path d="M20 20.625C20 23.2771 21.0536 25.8208 22.9289 27.6961C24.8042 29.5714 27.3479 30.625 30 30.625H40V10.625H30C27.3479 10.625 24.8042 11.6786 22.9289 13.5539C21.0536 15.4292 20 17.9729 20 20.625Z" fill="#F24E1E"/>
<path d="M20 40.625C20 43.2771 21.0536 45.8207 22.9289 47.6961C24.8042 49.5714 27.3479 50.625 30 50.625H40V30.625H30C27.3479 30.625 24.8042 31.6786 22.9289 33.5539C21.0536 35.4292 20 37.9729 20 40.625Z" fill="#A259FF"/>
</svg>
