<svg width="80" height="80" viewBox="0 0 80 80" fill="none" xmlns="http://www.w3.org/2000/svg">
<path d="M40.7112 34.0733C40.7067 34.206 40.6496 34.3319 40.552 34.4242C40.4543 34.5165 40.3238 34.5681 40.188 34.568H34.7977C34.4445 34.568 34.1495 34.288 34.1495 33.9473C34.1495 32.4101 33.6053 31.6616 32.4921 31.6616C31.3789 31.6616 30.661 32.3299 30.64 33.4975C30.6161 34.7995 31.3694 35.9829 33.5137 38.0157C36.3367 40.6048 37.468 42.898 37.4136 45.9295C37.3248 50.8313 33.9156 54 28.7277 54C26.0784 54 24.0545 53.3075 22.7083 51.9411C21.3422 50.5532 20.7159 48.5167 20.8467 45.8884C20.8511 45.7555 20.9084 45.6296 21.0062 45.5372C21.104 45.4449 21.2348 45.3934 21.3708 45.3937H26.9463C27.0239 45.3949 27.1003 45.413 27.17 45.4466C27.2397 45.4801 27.3009 45.5284 27.3491 45.5879C27.3913 45.637 27.4221 45.6945 27.4396 45.7563C27.457 45.8182 27.4607 45.8829 27.4503 45.9463C27.3883 46.8945 27.5573 47.6029 27.9392 47.9949C28.1836 48.2488 28.5244 48.3776 28.9492 48.3776C29.9794 48.3776 30.5827 47.6664 30.6056 46.4269C30.6247 45.3555 30.2782 44.4165 28.3898 42.5172C25.9505 40.1876 23.7633 37.7805 23.8311 33.9959C23.8712 31.8007 24.7629 29.7931 26.3429 28.3427C28.0136 26.8101 30.2982 26 32.9504 26C35.6073 26.0187 37.6208 26.7597 38.9354 28.2027C40.1803 29.57 40.7789 31.5449 40.7131 34.0733H40.7112Z" fill="#0AE448"/>
<path d="M57.4185 53.078L57.4538 27.0072C57.4548 26.942 57.4425 26.8771 57.4175 26.8166C57.3925 26.756 57.3554 26.7009 57.3084 26.6546C57.2613 26.6082 57.2053 26.5716 57.1435 26.5467C57.0818 26.5218 57.0156 26.5093 56.9488 26.5098H48.6066C48.3259 26.5098 48.2027 26.7459 48.1226 26.9018L36.0437 52.9184V52.9231L36.0389 52.9296C35.9052 53.2498 36.1592 53.5923 36.5134 53.5923H42.3447C42.6597 53.5923 42.8688 53.499 42.971 53.3048L44.129 50.5842C44.2713 50.2211 44.298 50.1875 44.7028 50.1875H50.2744C50.6621 50.1875 50.6697 50.195 50.664 50.5655L50.5389 53.0948C50.5379 53.1601 50.5502 53.2248 50.5751 53.2853C50.6 53.3458 50.637 53.4008 50.684 53.4472C50.7309 53.4935 50.7869 53.5302 50.8485 53.5551C50.9102 53.58 50.9763 53.5927 51.043 53.5923H56.9345C57.0074 53.5932 57.0796 53.5784 57.1461 53.5491C57.2126 53.5197 57.2716 53.4765 57.3192 53.4224C57.3602 53.3755 57.3903 53.3203 57.4075 53.2609C57.4246 53.2014 57.4284 53.1391 57.4185 53.078ZM47.0982 44.3738C47.0542 44.374 47.0102 44.3724 46.9664 44.3691C46.946 44.3675 46.9262 44.3614 46.9084 44.3515C46.8906 44.3416 46.8752 44.3279 46.8634 44.3115C46.8515 44.2952 46.8435 44.2765 46.8399 44.2568C46.8362 44.237 46.8371 44.2168 46.8423 44.1974C46.8538 44.16 46.87 44.1087 46.8938 44.0462L51.0716 33.94C51.1092 33.8403 51.1525 33.7428 51.2015 33.6479C51.2693 33.5116 51.3514 33.5023 51.3771 33.6031C51.3991 33.6871 50.8979 43.9799 50.8979 43.9799C50.8587 44.3654 50.8406 44.3812 50.452 44.413L47.102 44.3756H47.0943L47.0982 44.3738Z" fill="#0AE448"/>
<path d="M69.3026 26.5096H64.8737C64.6398 26.5096 64.3773 26.631 64.3162 26.9035L58.1526 53.0648C58.1392 53.1238 58.1397 53.1851 58.1543 53.2438C58.1689 53.3025 58.197 53.3572 58.2366 53.4036C58.288 53.4628 58.352 53.5103 58.424 53.5428C58.4961 53.5754 58.5745 53.5922 58.6538 53.5922H64.1892C64.4871 53.5922 64.6904 53.4494 64.7458 53.202L65.4179 50.2368C65.4656 50.0054 65.3835 49.8262 65.1716 49.7179C65.0721 49.6678 64.9728 49.6174 64.8737 49.5667L63.9143 49.0786L62.9596 48.5914L62.5901 48.4038C62.56 48.3891 62.5348 48.3664 62.5174 48.3384C62.5 48.3103 62.4911 48.2779 62.4917 48.2451C62.493 48.1965 62.5137 48.1503 62.5494 48.1164C62.5851 48.0826 62.633 48.0638 62.6827 48.064L65.7158 48.0771C66.6227 48.0818 67.5307 48.0192 68.4233 47.8587C74.7053 46.7247 78.8773 41.806 78.9976 35.1131C79.1007 29.4011 75.8394 26.5068 69.3074 26.5068L69.3026 26.5096ZM67.7951 42.0776H67.6767C67.4104 42.0776 67.3636 42.0496 67.356 42.0403C67.3512 42.0338 69.105 34.5055 69.1059 34.4952C69.1508 34.2778 69.1489 34.1527 69.0114 34.079C68.8357 33.9838 66.2752 32.664 66.2752 32.664C66.2455 32.6487 66.2206 32.6256 66.2036 32.5972C66.1866 32.5688 66.178 32.5364 66.1788 32.5035C66.1801 32.4556 66.2004 32.41 66.2356 32.3765C66.2707 32.343 66.3178 32.3243 66.3669 32.3243H70.4158C71.676 32.3616 72.3786 33.4639 72.3452 35.3464C72.287 38.6047 70.7022 41.9628 67.7951 42.0776Z" fill="#0AE448"/>
<path d="M23.7318 39.0785V39.0906L22.7055 43.4456C22.6501 43.692 22.3981 43.8721 22.1078 43.8721H20.8677C20.823 43.8723 20.7795 43.8866 20.7438 43.9128C20.708 43.939 20.6818 43.9758 20.6691 44.0177C19.5254 47.8108 17.9768 50.4176 15.9319 51.9828C14.1924 53.3156 12.0481 53.9372 9.18309 53.9372C6.60921 53.9372 4.87356 53.128 3.40141 51.5301C1.45573 49.4189 0.651868 45.9618 1.13877 41.7973C2.01709 33.9788 6.16527 26.0893 14.1523 26.0893C16.582 26.0688 18.4895 26.8014 19.8166 28.264C21.22 29.8114 21.9322 32.141 21.936 35.1912C21.9325 35.3249 21.8758 35.452 21.7779 35.5454C21.68 35.6388 21.5487 35.6912 21.4119 35.6914H15.5595C15.457 35.6883 15.3596 35.647 15.2873 35.5758C15.215 35.5046 15.1734 35.409 15.171 35.3088C15.1232 33.1994 14.4836 32.1728 13.2119 32.1728C10.9684 32.1728 9.64516 35.1501 8.94346 36.8002C7.96298 39.1056 7.46367 41.6097 7.562 44.1036C7.60878 45.2646 7.79972 46.897 8.92723 47.5737C9.9268 48.1729 11.3531 47.7753 12.2171 47.1117C13.0802 46.4472 13.7752 45.2982 14.0673 44.2501C14.1084 44.1045 14.1113 43.9916 14.0721 43.9412C14.0311 43.8889 13.9175 43.8768 13.8306 43.8768H12.3279C12.2483 43.877 12.1697 43.8603 12.0975 43.8277C12.0252 43.7951 11.9612 43.7475 11.9097 43.6882C11.8702 43.6419 11.8422 43.5874 11.8278 43.5288C11.8134 43.4702 11.813 43.4091 11.8267 43.3504L12.8539 38.988C12.9045 38.7649 13.1117 38.596 13.3666 38.5661V38.5549H23.2287C23.2516 38.5549 23.2754 38.5549 23.2974 38.5596C23.5533 38.5922 23.7337 38.8246 23.7289 39.0785H23.7318Z" fill="#0AE448"/>
</svg>
