<svg width="80" height="80" viewBox="0 0 80 80" fill="none" xmlns="http://www.w3.org/2000/svg">
<path d="M40 1.25L73.75 20.6161V59.3573L40 78.7235L6.25 59.3573V20.6161L40 1.25Z" fill="white"/>
<path d="M67.7241 58.0209L41.1166 73.2909V61.4005L57.695 52.1465L67.7241 58.0209ZM69.5467 56.3488V24.4199L59.8142 30.1263V50.6513L69.5467 56.3488ZM12.1718 58.0209L38.7794 73.2909V61.4005L22.1921 52.1465L12.1718 58.0209ZM10.3491 56.3488V24.4199L20.0816 30.1263V50.6513L10.3491 56.3488ZM11.4916 22.3497L38.7794 6.69043V18.1828L21.2939 27.941L21.1544 28.0207L11.4916 22.3497ZM68.4044 22.3497L41.1166 6.69043V18.1828L58.602 27.9322L58.7416 28.0118L68.4044 22.3497Z" fill="#8ED6FB"/>
<path d="M38.7786 58.6933L22.4182 49.5631V31.4886L38.7786 41.07V58.6933ZM41.1158 58.6933L57.4763 49.572V31.4886L41.1158 41.07V58.6933ZM23.5257 29.4008L39.9472 20.2441L56.3687 29.4008L39.9472 39.0175L23.5257 29.4008Z" fill="#1C78C0"/>
</svg>
